<?xml version="1.0" encoding="utf-8" standalone="no"?>
<!DOCTYPE svg PUBLIC "-//W3C//DTD SVG 1.1//EN"
  "http://www.w3.org/Graphics/SVG/1.1/DTD/svg11.dtd">
<svg xmlns:xlink="http://www.w3.org/1999/xlink" width="516.735937pt" height="397.376562pt" viewBox="0 0 516.735937 397.376562" xmlns="http://www.w3.org/2000/svg" version="1.1">
 <metadata>
  <rdf:RDF xmlns:dc="http://purl.org/dc/elements/1.1/" xmlns:cc="http://creativecommons.org/ns#" xmlns:rdf="http://www.w3.org/1999/02/22-rdf-syntax-ns#">
   <cc:Work>
    <dc:type rdf:resource="http://purl.org/dc/dcmitype/StillImage"/>
    <dc:date>2026-07-18T00:02:42.860326</dc:date>
    <dc:format>image/svg+xml</dc:format>
    <dc:creator>
     <cc:Agent>
      <dc:title>Matplotlib v3.10.1, https://matplotlib.org/</dc:title>
     </cc:Agent>
    </dc:creator>
   </cc:Work>
  </rdf:RDF>
 </metadata>
 <defs>
  <style type="text/css">*{stroke-linejoin: round; stroke-linecap: butt}</style>
 </defs>
 <g id="figure_1">
  <g id="patch_1">
   <path d="M 0 397.376562 
L 516.735937 397.376562 
L 516.735937 0 
L 0 0 
z
" style="fill: #ffffff"/>
  </g>
  <g id="axes_1">
   <g id="patch_2">
    <path d="M 52.635938 355.56125 
L 499.035937 355.56125 
L 499.035937 22.92125 
L 52.635938 22.92125 
z
" style="fill: #ffffff"/>
   </g>
   <g id="matplotlib.axis_1">
    <g id="xtick_1">
     <g id="line2d_1">
      <path d="M 52.635938 355.56125 
L 52.635938 22.92125 
" clip-path="url(#p2fad32db10)" style="fill: none; stroke: #b0b0b0; stroke-opacity: 0.3; stroke-width: 0.8; stroke-linecap: square"/>
     </g>
     <g id="line2d_2">
      <defs>
       <path id="m1c28194fbb" d="M 0 0 
L 0 3.5 
" style="stroke: #000000; stroke-width: 0.8"/>
      </defs>
      <g>
       <use xlink:href="#m1c28194fbb" x="52.635938" y="355.56125" style="stroke: #000000; stroke-width: 0.8"/>
      </g>
     </g>
     <g id="text_1">
      <!-- 5.0 -->
      <g transform="translate(45.135938 370.89375) scale(0.12 -0.12)">
       <defs>
        <path id="TimesNewRomanPSMT-35" d="M 2778 4238 
L 2534 3706 
L 1259 3706 
L 981 3138 
Q 1809 3016 2294 2522 
Q 2709 2097 2709 1522 
Q 2709 1188 2573 903 
Q 2438 619 2231 419 
Q 2025 219 1772 97 
Q 1413 -75 1034 -75 
Q 653 -75 479 54 
Q 306 184 306 341 
Q 306 428 378 495 
Q 450 563 559 563 
Q 641 563 702 538 
Q 763 513 909 409 
Q 1144 247 1384 247 
Q 1750 247 2026 523 
Q 2303 800 2303 1197 
Q 2303 1581 2056 1914 
Q 1809 2247 1375 2428 
Q 1034 2569 447 2591 
L 1259 4238 
L 2778 4238 
z
" transform="scale(0.015625)"/>
        <path id="TimesNewRomanPSMT-2e" d="M 800 606 
Q 947 606 1047 504 
Q 1147 403 1147 259 
Q 1147 116 1045 14 
Q 944 -88 800 -88 
Q 656 -88 554 14 
Q 453 116 453 259 
Q 453 406 554 506 
Q 656 606 800 606 
z
" transform="scale(0.015625)"/>
        <path id="TimesNewRomanPSMT-30" d="M 231 2094 
Q 231 2819 450 3342 
Q 669 3866 1031 4122 
Q 1313 4325 1613 4325 
Q 2100 4325 2488 3828 
Q 2972 3213 2972 2159 
Q 2972 1422 2759 906 
Q 2547 391 2217 158 
Q 1888 -75 1581 -75 
Q 975 -75 572 641 
Q 231 1244 231 2094 
z
M 844 2016 
Q 844 1141 1059 588 
Q 1238 122 1591 122 
Q 1759 122 1940 273 
Q 2122 425 2216 781 
Q 2359 1319 2359 2297 
Q 2359 3022 2209 3506 
Q 2097 3866 1919 4016 
Q 1791 4119 1609 4119 
Q 1397 4119 1231 3928 
Q 1006 3669 925 3112 
Q 844 2556 844 2016 
z
" transform="scale(0.015625)"/>
       </defs>
       <use xlink:href="#TimesNewRomanPSMT-35"/>
       <use xlink:href="#TimesNewRomanPSMT-2e" transform="translate(50 0)"/>
       <use xlink:href="#TimesNewRomanPSMT-30" transform="translate(75 0)"/>
      </g>
     </g>
    </g>
    <g id="xtick_2">
     <g id="line2d_3">
      <path d="M 108.435938 355.56125 
L 108.435938 22.92125 
" clip-path="url(#p2fad32db10)" style="fill: none; stroke: #b0b0b0; stroke-opacity: 0.3; stroke-width: 0.8; stroke-linecap: square"/>
     </g>
     <g id="line2d_4">
      <g>
       <use xlink:href="#m1c28194fbb" x="108.435938" y="355.56125" style="stroke: #000000; stroke-width: 0.8"/>
      </g>
     </g>
     <g id="text_2">
      <!-- 7.5 -->
      <g transform="translate(100.935938 370.89375) scale(0.12 -0.12)">
       <defs>
        <path id="TimesNewRomanPSMT-37" d="M 644 4238 
L 2916 4238 
L 2916 4119 
L 1503 -88 
L 1153 -88 
L 2419 3728 
L 1253 3728 
Q 900 3728 750 3644 
Q 488 3500 328 3200 
L 238 3234 
L 644 4238 
z
" transform="scale(0.015625)"/>
       </defs>
       <use xlink:href="#TimesNewRomanPSMT-37"/>
       <use xlink:href="#TimesNewRomanPSMT-2e" transform="translate(50 0)"/>
       <use xlink:href="#TimesNewRomanPSMT-35" transform="translate(75 0)"/>
      </g>
     </g>
    </g>
    <g id="xtick_3">
     <g id="line2d_5">
      <path d="M 164.235938 355.56125 
L 164.235938 22.92125 
" clip-path="url(#p2fad32db10)" style="fill: none; stroke: #b0b0b0; stroke-opacity: 0.3; stroke-width: 0.8; stroke-linecap: square"/>
     </g>
     <g id="line2d_6">
      <g>
       <use xlink:href="#m1c28194fbb" x="164.235938" y="355.56125" style="stroke: #000000; stroke-width: 0.8"/>
      </g>
     </g>
     <g id="text_3">
      <!-- 10.0 -->
      <g transform="translate(153.735938 370.89375) scale(0.12 -0.12)">
       <defs>
        <path id="TimesNewRomanPSMT-31" d="M 750 3822 
L 1781 4325 
L 1884 4325 
L 1884 747 
Q 1884 391 1914 303 
Q 1944 216 2037 169 
Q 2131 122 2419 116 
L 2419 0 
L 825 0 
L 825 116 
Q 1125 122 1212 167 
Q 1300 213 1334 289 
Q 1369 366 1369 747 
L 1369 3034 
Q 1369 3497 1338 3628 
Q 1316 3728 1258 3775 
Q 1200 3822 1119 3822 
Q 1003 3822 797 3725 
L 750 3822 
z
" transform="scale(0.015625)"/>
       </defs>
       <use xlink:href="#TimesNewRomanPSMT-31"/>
       <use xlink:href="#TimesNewRomanPSMT-30" transform="translate(50 0)"/>
       <use xlink:href="#TimesNewRomanPSMT-2e" transform="translate(100 0)"/>
       <use xlink:href="#TimesNewRomanPSMT-30" transform="translate(125 0)"/>
      </g>
     </g>
    </g>
    <g id="xtick_4">
     <g id="line2d_7">
      <path d="M 220.035938 355.56125 
L 220.035938 22.92125 
" clip-path="url(#p2fad32db10)" style="fill: none; stroke: #b0b0b0; stroke-opacity: 0.3; stroke-width: 0.8; stroke-linecap: square"/>
     </g>
     <g id="line2d_8">
      <g>
       <use xlink:href="#m1c28194fbb" x="220.035938" y="355.56125" style="stroke: #000000; stroke-width: 0.8"/>
      </g>
     </g>
     <g id="text_4">
      <!-- 12.5 -->
      <g transform="translate(209.535938 370.89375) scale(0.12 -0.12)">
       <defs>
        <path id="TimesNewRomanPSMT-32" d="M 2934 816 
L 2638 0 
L 138 0 
L 138 116 
Q 1241 1122 1691 1759 
Q 2141 2397 2141 2925 
Q 2141 3328 1894 3587 
Q 1647 3847 1303 3847 
Q 991 3847 742 3664 
Q 494 3481 375 3128 
L 259 3128 
Q 338 3706 661 4015 
Q 984 4325 1469 4325 
Q 1984 4325 2329 3994 
Q 2675 3663 2675 3213 
Q 2675 2891 2525 2569 
Q 2294 2063 1775 1497 
Q 997 647 803 472 
L 1909 472 
Q 2247 472 2383 497 
Q 2519 522 2628 598 
Q 2738 675 2819 816 
L 2934 816 
z
" transform="scale(0.015625)"/>
       </defs>
       <use xlink:href="#TimesNewRomanPSMT-31"/>
       <use xlink:href="#TimesNewRomanPSMT-32" transform="translate(50 0)"/>
       <use xlink:href="#TimesNewRomanPSMT-2e" transform="translate(100 0)"/>
       <use xlink:href="#TimesNewRomanPSMT-35" transform="translate(125 0)"/>
      </g>
     </g>
    </g>
    <g id="xtick_5">
     <g id="line2d_9">
      <path d="M 275.835938 355.56125 
L 275.835938 22.92125 
" clip-path="url(#p2fad32db10)" style="fill: none; stroke: #b0b0b0; stroke-opacity: 0.3; stroke-width: 0.8; stroke-linecap: square"/>
     </g>
     <g id="line2d_10">
      <g>
       <use xlink:href="#m1c28194fbb" x="275.835938" y="355.56125" style="stroke: #000000; stroke-width: 0.8"/>
      </g>
     </g>
     <g id="text_5">
      <!-- 15.0 -->
      <g transform="translate(265.335938 370.89375) scale(0.12 -0.12)">
       <use xlink:href="#TimesNewRomanPSMT-31"/>
       <use xlink:href="#TimesNewRomanPSMT-35" transform="translate(50 0)"/>
       <use xlink:href="#TimesNewRomanPSMT-2e" transform="translate(100 0)"/>
       <use xlink:href="#TimesNewRomanPSMT-30" transform="translate(125 0)"/>
      </g>
     </g>
    </g>
    <g id="xtick_6">
     <g id="line2d_11">
      <path d="M 331.635938 355.56125 
L 331.635938 22.92125 
" clip-path="url(#p2fad32db10)" style="fill: none; stroke: #b0b0b0; stroke-opacity: 0.3; stroke-width: 0.8; stroke-linecap: square"/>
     </g>
     <g id="line2d_12">
      <g>
       <use xlink:href="#m1c28194fbb" x="331.635938" y="355.56125" style="stroke: #000000; stroke-width: 0.8"/>
      </g>
     </g>
     <g id="text_6">
      <!-- 17.5 -->
      <g transform="translate(321.135938 370.89375) scale(0.12 -0.12)">
       <use xlink:href="#TimesNewRomanPSMT-31"/>
       <use xlink:href="#TimesNewRomanPSMT-37" transform="translate(50 0)"/>
       <use xlink:href="#TimesNewRomanPSMT-2e" transform="translate(100 0)"/>
       <use xlink:href="#TimesNewRomanPSMT-35" transform="translate(125 0)"/>
      </g>
     </g>
    </g>
    <g id="xtick_7">
     <g id="line2d_13">
      <path d="M 387.435938 355.56125 
L 387.435938 22.92125 
" clip-path="url(#p2fad32db10)" style="fill: none; stroke: #b0b0b0; stroke-opacity: 0.3; stroke-width: 0.8; stroke-linecap: square"/>
     </g>
     <g id="line2d_14">
      <g>
       <use xlink:href="#m1c28194fbb" x="387.435938" y="355.56125" style="stroke: #000000; stroke-width: 0.8"/>
      </g>
     </g>
     <g id="text_7">
      <!-- 20.0 -->
      <g transform="translate(376.935938 370.89375) scale(0.12 -0.12)">
       <use xlink:href="#TimesNewRomanPSMT-32"/>
       <use xlink:href="#TimesNewRomanPSMT-30" transform="translate(50 0)"/>
       <use xlink:href="#TimesNewRomanPSMT-2e" transform="translate(100 0)"/>
       <use xlink:href="#TimesNewRomanPSMT-30" transform="translate(125 0)"/>
      </g>
     </g>
    </g>
    <g id="xtick_8">
     <g id="line2d_15">
      <path d="M 443.235937 355.56125 
L 443.235937 22.92125 
" clip-path="url(#p2fad32db10)" style="fill: none; stroke: #b0b0b0; stroke-opacity: 0.3; stroke-width: 0.8; stroke-linecap: square"/>
     </g>
     <g id="line2d_16">
      <g>
       <use xlink:href="#m1c28194fbb" x="443.235937" y="355.56125" style="stroke: #000000; stroke-width: 0.8"/>
      </g>
     </g>
     <g id="text_8">
      <!-- 22.5 -->
      <g transform="translate(432.735937 370.89375) scale(0.12 -0.12)">
       <use xlink:href="#TimesNewRomanPSMT-32"/>
       <use xlink:href="#TimesNewRomanPSMT-32" transform="translate(50 0)"/>
       <use xlink:href="#TimesNewRomanPSMT-2e" transform="translate(100 0)"/>
       <use xlink:href="#TimesNewRomanPSMT-35" transform="translate(125 0)"/>
      </g>
     </g>
    </g>
    <g id="xtick_9">
     <g id="line2d_17">
      <path d="M 499.035938 355.56125 
L 499.035938 22.92125 
" clip-path="url(#p2fad32db10)" style="fill: none; stroke: #b0b0b0; stroke-opacity: 0.3; stroke-width: 0.8; stroke-linecap: square"/>
     </g>
     <g id="line2d_18">
      <g>
       <use xlink:href="#m1c28194fbb" x="499.035938" y="355.56125" style="stroke: #000000; stroke-width: 0.8"/>
      </g>
     </g>
     <g id="text_9">
      <!-- 25.0 -->
      <g transform="translate(488.535938 370.89375) scale(0.12 -0.12)">
       <use xlink:href="#TimesNewRomanPSMT-32"/>
       <use xlink:href="#TimesNewRomanPSMT-35" transform="translate(50 0)"/>
       <use xlink:href="#TimesNewRomanPSMT-2e" transform="translate(100 0)"/>
       <use xlink:href="#TimesNewRomanPSMT-30" transform="translate(125 0)"/>
      </g>
     </g>
    </g>
    <g id="text_10">
     <!-- Electrical SNR (dB) -->
     <g transform="translate(219.073594 387.181875) scale(0.14 -0.14)">
      <defs>
       <path id="TimesNewRomanPSMT-45" d="M 1338 4006 
L 1338 2331 
L 2269 2331 
Q 2631 2331 2753 2441 
Q 2916 2584 2934 2947 
L 3050 2947 
L 3050 1472 
L 2934 1472 
Q 2891 1781 2847 1869 
Q 2791 1978 2662 2040 
Q 2534 2103 2269 2103 
L 1338 2103 
L 1338 706 
Q 1338 425 1363 364 
Q 1388 303 1450 267 
Q 1513 231 1688 231 
L 2406 231 
Q 2766 231 2928 281 
Q 3091 331 3241 478 
Q 3434 672 3638 1063 
L 3763 1063 
L 3397 0 
L 131 0 
L 131 116 
L 281 116 
Q 431 116 566 188 
Q 666 238 702 338 
Q 738 438 738 747 
L 738 3500 
Q 738 3903 656 3997 
Q 544 4122 281 4122 
L 131 4122 
L 131 4238 
L 3397 4238 
L 3444 3309 
L 3322 3309 
Q 3256 3644 3176 3769 
Q 3097 3894 2941 3959 
Q 2816 4006 2500 4006 
L 1338 4006 
z
" transform="scale(0.015625)"/>
       <path id="TimesNewRomanPSMT-6c" d="M 1184 4444 
L 1184 647 
Q 1184 378 1223 290 
Q 1263 203 1344 158 
Q 1425 113 1647 113 
L 1647 0 
L 244 0 
L 244 113 
Q 441 113 512 153 
Q 584 194 625 287 
Q 666 381 666 647 
L 666 3247 
Q 666 3731 644 3842 
Q 622 3953 573 3993 
Q 525 4034 450 4034 
Q 369 4034 244 3984 
L 191 4094 
L 1044 4444 
L 1184 4444 
z
" transform="scale(0.015625)"/>
       <path id="TimesNewRomanPSMT-65" d="M 681 1784 
Q 678 1147 991 784 
Q 1303 422 1725 422 
Q 2006 422 2214 576 
Q 2422 731 2563 1106 
L 2659 1044 
Q 2594 616 2278 264 
Q 1963 -88 1488 -88 
Q 972 -88 605 314 
Q 238 716 238 1394 
Q 238 2128 614 2539 
Q 991 2950 1559 2950 
Q 2041 2950 2350 2633 
Q 2659 2316 2659 1784 
L 681 1784 
z
M 681 1966 
L 2006 1966 
Q 1991 2241 1941 2353 
Q 1863 2528 1708 2628 
Q 1553 2728 1384 2728 
Q 1125 2728 920 2526 
Q 716 2325 681 1966 
z
" transform="scale(0.015625)"/>
       <path id="TimesNewRomanPSMT-63" d="M 2631 1088 
Q 2516 522 2178 217 
Q 1841 -88 1431 -88 
Q 944 -88 581 321 
Q 219 731 219 1428 
Q 219 2103 620 2525 
Q 1022 2947 1584 2947 
Q 2006 2947 2278 2723 
Q 2550 2500 2550 2259 
Q 2550 2141 2473 2067 
Q 2397 1994 2259 1994 
Q 2075 1994 1981 2113 
Q 1928 2178 1911 2362 
Q 1894 2547 1784 2644 
Q 1675 2738 1481 2738 
Q 1169 2738 978 2506 
Q 725 2200 725 1697 
Q 725 1184 976 792 
Q 1228 400 1656 400 
Q 1963 400 2206 609 
Q 2378 753 2541 1131 
L 2631 1088 
z
" transform="scale(0.015625)"/>
       <path id="TimesNewRomanPSMT-74" d="M 1031 3803 
L 1031 2863 
L 1700 2863 
L 1700 2644 
L 1031 2644 
L 1031 788 
Q 1031 509 1111 412 
Q 1191 316 1316 316 
Q 1419 316 1516 380 
Q 1613 444 1666 569 
L 1788 569 
Q 1678 263 1478 108 
Q 1278 -47 1066 -47 
Q 922 -47 784 33 
Q 647 113 581 261 
Q 516 409 516 719 
L 516 2644 
L 63 2644 
L 63 2747 
Q 234 2816 414 2980 
Q 594 3144 734 3369 
Q 806 3488 934 3803 
L 1031 3803 
z
" transform="scale(0.015625)"/>
       <path id="TimesNewRomanPSMT-72" d="M 1038 2947 
L 1038 2303 
Q 1397 2947 1775 2947 
Q 1947 2947 2059 2842 
Q 2172 2738 2172 2600 
Q 2172 2478 2090 2393 
Q 2009 2309 1897 2309 
Q 1788 2309 1652 2417 
Q 1516 2525 1450 2525 
Q 1394 2525 1328 2463 
Q 1188 2334 1038 2041 
L 1038 669 
Q 1038 431 1097 309 
Q 1138 225 1241 169 
Q 1344 113 1538 113 
L 1538 0 
L 72 0 
L 72 113 
Q 291 113 397 181 
Q 475 231 506 341 
Q 522 394 522 644 
L 522 1753 
Q 522 2253 501 2348 
Q 481 2444 426 2487 
Q 372 2531 291 2531 
Q 194 2531 72 2484 
L 41 2597 
L 906 2947 
L 1038 2947 
z
" transform="scale(0.015625)"/>
       <path id="TimesNewRomanPSMT-69" d="M 928 4444 
Q 1059 4444 1151 4351 
Q 1244 4259 1244 4128 
Q 1244 3997 1151 3903 
Q 1059 3809 928 3809 
Q 797 3809 703 3903 
Q 609 3997 609 4128 
Q 609 4259 701 4351 
Q 794 4444 928 4444 
z
M 1188 2947 
L 1188 647 
Q 1188 378 1227 289 
Q 1266 200 1342 156 
Q 1419 113 1622 113 
L 1622 0 
L 231 0 
L 231 113 
Q 441 113 512 153 
Q 584 194 626 287 
Q 669 381 669 647 
L 669 1750 
Q 669 2216 641 2353 
Q 619 2453 572 2492 
Q 525 2531 444 2531 
Q 356 2531 231 2484 
L 188 2597 
L 1050 2947 
L 1188 2947 
z
" transform="scale(0.015625)"/>
       <path id="TimesNewRomanPSMT-61" d="M 1822 413 
Q 1381 72 1269 19 
Q 1100 -59 909 -59 
Q 613 -59 420 144 
Q 228 347 228 678 
Q 228 888 322 1041 
Q 450 1253 767 1440 
Q 1084 1628 1822 1897 
L 1822 2009 
Q 1822 2438 1686 2597 
Q 1550 2756 1291 2756 
Q 1094 2756 978 2650 
Q 859 2544 859 2406 
L 866 2225 
Q 866 2081 792 2003 
Q 719 1925 600 1925 
Q 484 1925 411 2006 
Q 338 2088 338 2228 
Q 338 2497 613 2722 
Q 888 2947 1384 2947 
Q 1766 2947 2009 2819 
Q 2194 2722 2281 2516 
Q 2338 2381 2338 1966 
L 2338 994 
Q 2338 584 2353 492 
Q 2369 400 2405 369 
Q 2441 338 2488 338 
Q 2538 338 2575 359 
Q 2641 400 2828 588 
L 2828 413 
Q 2478 -56 2159 -56 
Q 2006 -56 1915 50 
Q 1825 156 1822 413 
z
M 1822 616 
L 1822 1706 
Q 1350 1519 1213 1441 
Q 966 1303 859 1153 
Q 753 1003 753 825 
Q 753 600 887 451 
Q 1022 303 1197 303 
Q 1434 303 1822 616 
z
" transform="scale(0.015625)"/>
       <path id="TimesNewRomanPSMT-20" transform="scale(0.015625)"/>
       <path id="TimesNewRomanPSMT-53" d="M 2934 4334 
L 2934 2869 
L 2819 2869 
Q 2763 3291 2617 3541 
Q 2472 3791 2203 3937 
Q 1934 4084 1647 4084 
Q 1322 4084 1109 3886 
Q 897 3688 897 3434 
Q 897 3241 1031 3081 
Q 1225 2847 1953 2456 
Q 2547 2138 2764 1967 
Q 2981 1797 3098 1565 
Q 3216 1334 3216 1081 
Q 3216 600 2842 251 
Q 2469 -97 1881 -97 
Q 1697 -97 1534 -69 
Q 1438 -53 1133 45 
Q 828 144 747 144 
Q 669 144 623 97 
Q 578 50 556 -97 
L 441 -97 
L 441 1356 
L 556 1356 
Q 638 900 775 673 
Q 913 447 1195 297 
Q 1478 147 1816 147 
Q 2206 147 2432 353 
Q 2659 559 2659 841 
Q 2659 997 2573 1156 
Q 2488 1316 2306 1453 
Q 2184 1547 1640 1851 
Q 1097 2156 867 2337 
Q 638 2519 519 2737 
Q 400 2956 400 3219 
Q 400 3675 750 4004 
Q 1100 4334 1641 4334 
Q 1978 4334 2356 4169 
Q 2531 4091 2603 4091 
Q 2684 4091 2736 4139 
Q 2788 4188 2819 4334 
L 2934 4334 
z
" transform="scale(0.015625)"/>
       <path id="TimesNewRomanPSMT-4e" d="M -84 4238 
L 1066 4238 
L 3656 1059 
L 3656 3503 
Q 3656 3894 3569 3991 
Q 3453 4122 3203 4122 
L 3056 4122 
L 3056 4238 
L 4531 4238 
L 4531 4122 
L 4381 4122 
Q 4113 4122 4000 3959 
Q 3931 3859 3931 3503 
L 3931 -69 
L 3819 -69 
L 1025 3344 
L 1025 734 
Q 1025 344 1109 247 
Q 1228 116 1475 116 
L 1625 116 
L 1625 0 
L 150 0 
L 150 116 
L 297 116 
Q 569 116 681 278 
Q 750 378 750 734 
L 750 3681 
Q 566 3897 470 3965 
Q 375 4034 191 4094 
Q 100 4122 -84 4122 
L -84 4238 
z
" transform="scale(0.015625)"/>
       <path id="TimesNewRomanPSMT-52" d="M 4325 0 
L 3194 0 
L 1759 1981 
Q 1600 1975 1500 1975 
Q 1459 1975 1412 1976 
Q 1366 1978 1316 1981 
L 1316 750 
Q 1316 350 1403 253 
Q 1522 116 1759 116 
L 1925 116 
L 1925 0 
L 109 0 
L 109 116 
L 269 116 
Q 538 116 653 291 
Q 719 388 719 750 
L 719 3488 
Q 719 3888 631 3984 
Q 509 4122 269 4122 
L 109 4122 
L 109 4238 
L 1653 4238 
Q 2328 4238 2648 4139 
Q 2969 4041 3192 3777 
Q 3416 3513 3416 3147 
Q 3416 2756 3161 2468 
Q 2906 2181 2372 2063 
L 3247 847 
Q 3547 428 3762 290 
Q 3978 153 4325 116 
L 4325 0 
z
M 1316 2178 
Q 1375 2178 1419 2176 
Q 1463 2175 1491 2175 
Q 2097 2175 2405 2437 
Q 2713 2700 2713 3106 
Q 2713 3503 2464 3751 
Q 2216 4000 1806 4000 
Q 1625 4000 1316 3941 
L 1316 2178 
z
" transform="scale(0.015625)"/>
       <path id="TimesNewRomanPSMT-28" d="M 1988 -1253 
L 1988 -1369 
Q 1516 -1131 1200 -813 
Q 750 -359 506 256 
Q 263 872 263 1534 
Q 263 2503 741 3301 
Q 1219 4100 1988 4444 
L 1988 4313 
Q 1603 4100 1356 3731 
Q 1109 3363 987 2797 
Q 866 2231 866 1616 
Q 866 947 969 400 
Q 1050 -31 1165 -292 
Q 1281 -553 1476 -793 
Q 1672 -1034 1988 -1253 
z
" transform="scale(0.015625)"/>
       <path id="TimesNewRomanPSMT-64" d="M 2222 322 
Q 2013 103 1813 7 
Q 1613 -88 1381 -88 
Q 913 -88 563 304 
Q 213 697 213 1313 
Q 213 1928 600 2439 
Q 988 2950 1597 2950 
Q 1975 2950 2222 2709 
L 2222 3238 
Q 2222 3728 2198 3840 
Q 2175 3953 2125 3993 
Q 2075 4034 2000 4034 
Q 1919 4034 1784 3984 
L 1744 4094 
L 2597 4444 
L 2738 4444 
L 2738 1134 
Q 2738 631 2761 520 
Q 2784 409 2836 365 
Q 2888 322 2956 322 
Q 3041 322 3181 375 
L 3216 266 
L 2366 -88 
L 2222 -88 
L 2222 322 
z
M 2222 541 
L 2222 2016 
Q 2203 2228 2109 2403 
Q 2016 2578 1861 2667 
Q 1706 2756 1559 2756 
Q 1284 2756 1069 2509 
Q 784 2184 784 1559 
Q 784 928 1059 592 
Q 1334 256 1672 256 
Q 1956 256 2222 541 
z
" transform="scale(0.015625)"/>
       <path id="TimesNewRomanPSMT-42" d="M 2956 2163 
Q 3397 2069 3616 1863 
Q 3919 1575 3919 1159 
Q 3919 844 3719 555 
Q 3519 266 3170 133 
Q 2822 0 2106 0 
L 106 0 
L 106 116 
L 266 116 
Q 531 116 647 284 
Q 719 394 719 750 
L 719 3488 
Q 719 3881 628 3984 
Q 506 4122 266 4122 
L 106 4122 
L 106 4238 
L 1938 4238 
Q 2450 4238 2759 4163 
Q 3228 4050 3475 3764 
Q 3722 3478 3722 3106 
Q 3722 2788 3528 2536 
Q 3334 2284 2956 2163 
z
M 1319 2331 
Q 1434 2309 1582 2298 
Q 1731 2288 1909 2288 
Q 2366 2288 2595 2386 
Q 2825 2484 2947 2687 
Q 3069 2891 3069 3131 
Q 3069 3503 2766 3765 
Q 2463 4028 1881 4028 
Q 1569 4028 1319 3959 
L 1319 2331 
z
M 1319 306 
Q 1681 222 2034 222 
Q 2600 222 2897 476 
Q 3194 731 3194 1106 
Q 3194 1353 3059 1581 
Q 2925 1809 2622 1940 
Q 2319 2072 1872 2072 
Q 1678 2072 1540 2065 
Q 1403 2059 1319 2044 
L 1319 306 
z
" transform="scale(0.015625)"/>
       <path id="TimesNewRomanPSMT-29" d="M 144 4313 
L 144 4444 
Q 619 4209 934 3891 
Q 1381 3434 1625 2820 
Q 1869 2206 1869 1541 
Q 1869 572 1392 -226 
Q 916 -1025 144 -1369 
L 144 -1253 
Q 528 -1038 776 -670 
Q 1025 -303 1145 264 
Q 1266 831 1266 1447 
Q 1266 2113 1163 2663 
Q 1084 3094 967 3353 
Q 850 3613 656 3853 
Q 463 4094 144 4313 
z
" transform="scale(0.015625)"/>
      </defs>
      <use xlink:href="#TimesNewRomanPSMT-45"/>
      <use xlink:href="#TimesNewRomanPSMT-6c" transform="translate(61.083984 0)"/>
      <use xlink:href="#TimesNewRomanPSMT-65" transform="translate(88.867188 0)"/>
      <use xlink:href="#TimesNewRomanPSMT-63" transform="translate(133.251953 0)"/>
      <use xlink:href="#TimesNewRomanPSMT-74" transform="translate(177.636719 0)"/>
      <use xlink:href="#TimesNewRomanPSMT-72" transform="translate(205.419922 0)"/>
      <use xlink:href="#TimesNewRomanPSMT-69" transform="translate(238.720703 0)"/>
      <use xlink:href="#TimesNewRomanPSMT-63" transform="translate(266.503906 0)"/>
      <use xlink:href="#TimesNewRomanPSMT-61" transform="translate(310.888672 0)"/>
      <use xlink:href="#TimesNewRomanPSMT-6c" transform="translate(355.273438 0)"/>
      <use xlink:href="#TimesNewRomanPSMT-20" transform="translate(383.056641 0)"/>
      <use xlink:href="#TimesNewRomanPSMT-53" transform="translate(408.056641 0)"/>
      <use xlink:href="#TimesNewRomanPSMT-4e" transform="translate(463.671875 0)"/>
      <use xlink:href="#TimesNewRomanPSMT-52" transform="translate(535.888672 0)"/>
      <use xlink:href="#TimesNewRomanPSMT-20" transform="translate(602.587891 0)"/>
      <use xlink:href="#TimesNewRomanPSMT-28" transform="translate(627.587891 0)"/>
      <use xlink:href="#TimesNewRomanPSMT-64" transform="translate(660.888672 0)"/>
      <use xlink:href="#TimesNewRomanPSMT-42" transform="translate(710.888672 0)"/>
      <use xlink:href="#TimesNewRomanPSMT-29" transform="translate(777.587891 0)"/>
     </g>
    </g>
   </g>
   <g id="matplotlib.axis_2">
    <g id="ytick_1">
     <g id="line2d_19">
      <path d="M 52.635938 355.56125 
L 499.035937 355.56125 
" clip-path="url(#p2fad32db10)" style="fill: none; stroke: #b0b0b0; stroke-opacity: 0.3; stroke-width: 0.8; stroke-linecap: square"/>
     </g>
     <g id="line2d_20">
      <defs>
       <path id="mca591ca13b" d="M 0 0 
L -3.5 0 
" style="stroke: #000000; stroke-width: 0.8"/>
      </defs>
      <g>
       <use xlink:href="#mca591ca13b" x="52.635938" y="355.56125" style="stroke: #000000; stroke-width: 0.8"/>
      </g>
     </g>
     <g id="text_11">
      <!-- $\mathdefault{10^{-6}}$ -->
      <g transform="translate(23.915938 360.877813) scale(0.12 -0.12)">
       <defs>
        <path id="TimesNewRomanPSMT-2212" d="M 3484 2000 
L 116 2000 
L 116 2256 
L 3484 2256 
L 3484 2000 
z
" transform="scale(0.015625)"/>
        <path id="TimesNewRomanPSMT-36" d="M 2869 4325 
L 2869 4209 
Q 2456 4169 2195 4045 
Q 1934 3922 1679 3669 
Q 1425 3416 1258 3105 
Q 1091 2794 978 2366 
Q 1428 2675 1881 2675 
Q 2316 2675 2634 2325 
Q 2953 1975 2953 1425 
Q 2953 894 2631 456 
Q 2244 -75 1606 -75 
Q 1172 -75 869 213 
Q 275 772 275 1663 
Q 275 2231 503 2743 
Q 731 3256 1154 3653 
Q 1578 4050 1965 4187 
Q 2353 4325 2688 4325 
L 2869 4325 
z
M 925 2138 
Q 869 1716 869 1456 
Q 869 1156 980 804 
Q 1091 453 1309 247 
Q 1469 100 1697 100 
Q 1969 100 2183 356 
Q 2397 613 2397 1088 
Q 2397 1622 2184 2012 
Q 1972 2403 1581 2403 
Q 1463 2403 1327 2353 
Q 1191 2303 925 2138 
z
" transform="scale(0.015625)"/>
       </defs>
       <use xlink:href="#TimesNewRomanPSMT-31" transform="translate(0 0.582813)"/>
       <use xlink:href="#TimesNewRomanPSMT-30" transform="translate(50 0.582813)"/>
       <use xlink:href="#TimesNewRomanPSMT-2212" transform="translate(101.502813 60.695312) scale(0.7)"/>
       <use xlink:href="#TimesNewRomanPSMT-36" transform="translate(140.980352 60.695312) scale(0.7)"/>
      </g>
     </g>
    </g>
    <g id="ytick_2">
     <g id="line2d_21">
      <path d="M 52.635938 300.12125 
L 499.035937 300.12125 
" clip-path="url(#p2fad32db10)" style="fill: none; stroke: #b0b0b0; stroke-opacity: 0.3; stroke-width: 0.8; stroke-linecap: square"/>
     </g>
     <g id="line2d_22">
      <g>
       <use xlink:href="#mca591ca13b" x="52.635938" y="300.12125" style="stroke: #000000; stroke-width: 0.8"/>
      </g>
     </g>
     <g id="text_12">
      <!-- $\mathdefault{10^{-5}}$ -->
      <g transform="translate(23.915938 305.377813) scale(0.12 -0.12)">
       <use xlink:href="#TimesNewRomanPSMT-31" transform="translate(0 0.534375)"/>
       <use xlink:href="#TimesNewRomanPSMT-30" transform="translate(50 0.534375)"/>
       <use xlink:href="#TimesNewRomanPSMT-2212" transform="translate(101.502813 60.646875) scale(0.7)"/>
       <use xlink:href="#TimesNewRomanPSMT-35" transform="translate(140.980352 60.646875) scale(0.7)"/>
      </g>
     </g>
    </g>
    <g id="ytick_3">
     <g id="line2d_23">
      <path d="M 52.635938 244.68125 
L 499.035937 244.68125 
" clip-path="url(#p2fad32db10)" style="fill: none; stroke: #b0b0b0; stroke-opacity: 0.3; stroke-width: 0.8; stroke-linecap: square"/>
     </g>
     <g id="line2d_24">
      <g>
       <use xlink:href="#mca591ca13b" x="52.635938" y="244.68125" style="stroke: #000000; stroke-width: 0.8"/>
      </g>
     </g>
     <g id="text_13">
      <!-- $\mathdefault{10^{-4}}$ -->
      <g transform="translate(23.915938 249.997812) scale(0.12 -0.12)">
       <defs>
        <path id="TimesNewRomanPSMT-34" d="M 2978 1563 
L 2978 1119 
L 2409 1119 
L 2409 0 
L 1894 0 
L 1894 1119 
L 100 1119 
L 100 1519 
L 2066 4325 
L 2409 4325 
L 2409 1563 
L 2978 1563 
z
M 1894 1563 
L 1894 3666 
L 406 1563 
L 1894 1563 
z
" transform="scale(0.015625)"/>
       </defs>
       <use xlink:href="#TimesNewRomanPSMT-31" transform="translate(0 0.582813)"/>
       <use xlink:href="#TimesNewRomanPSMT-30" transform="translate(50 0.582813)"/>
       <use xlink:href="#TimesNewRomanPSMT-2212" transform="translate(101.502813 60.695312) scale(0.7)"/>
       <use xlink:href="#TimesNewRomanPSMT-34" transform="translate(140.980352 60.695312) scale(0.7)"/>
      </g>
     </g>
    </g>
    <g id="ytick_4">
     <g id="line2d_25">
      <path d="M 52.635938 189.24125 
L 499.035937 189.24125 
" clip-path="url(#p2fad32db10)" style="fill: none; stroke: #b0b0b0; stroke-opacity: 0.3; stroke-width: 0.8; stroke-linecap: square"/>
     </g>
     <g id="line2d_26">
      <g>
       <use xlink:href="#mca591ca13b" x="52.635938" y="189.24125" style="stroke: #000000; stroke-width: 0.8"/>
      </g>
     </g>
     <g id="text_14">
      <!-- $\mathdefault{10^{-3}}$ -->
      <g transform="translate(23.915938 194.557812) scale(0.12 -0.12)">
       <defs>
        <path id="TimesNewRomanPSMT-33" d="M 325 3431 
Q 506 3859 782 4092 
Q 1059 4325 1472 4325 
Q 1981 4325 2253 3994 
Q 2459 3747 2459 3466 
Q 2459 3003 1878 2509 
Q 2269 2356 2469 2072 
Q 2669 1788 2669 1403 
Q 2669 853 2319 450 
Q 1863 -75 997 -75 
Q 569 -75 414 31 
Q 259 138 259 259 
Q 259 350 332 419 
Q 406 488 509 488 
Q 588 488 669 463 
Q 722 447 909 348 
Q 1097 250 1169 231 
Q 1284 197 1416 197 
Q 1734 197 1970 444 
Q 2206 691 2206 1028 
Q 2206 1275 2097 1509 
Q 2016 1684 1919 1775 
Q 1784 1900 1550 2001 
Q 1316 2103 1072 2103 
L 972 2103 
L 972 2197 
Q 1219 2228 1467 2375 
Q 1716 2522 1828 2728 
Q 1941 2934 1941 3181 
Q 1941 3503 1739 3701 
Q 1538 3900 1238 3900 
Q 753 3900 428 3381 
L 325 3431 
z
" transform="scale(0.015625)"/>
       </defs>
       <use xlink:href="#TimesNewRomanPSMT-31" transform="translate(0 0.582813)"/>
       <use xlink:href="#TimesNewRomanPSMT-30" transform="translate(50 0.582813)"/>
       <use xlink:href="#TimesNewRomanPSMT-2212" transform="translate(101.502813 60.695312) scale(0.7)"/>
       <use xlink:href="#TimesNewRomanPSMT-33" transform="translate(140.980352 60.695312) scale(0.7)"/>
      </g>
     </g>
    </g>
    <g id="ytick_5">
     <g id="line2d_27">
      <path d="M 52.635938 133.80125 
L 499.035937 133.80125 
" clip-path="url(#p2fad32db10)" style="fill: none; stroke: #b0b0b0; stroke-opacity: 0.3; stroke-width: 0.8; stroke-linecap: square"/>
     </g>
     <g id="line2d_28">
      <g>
       <use xlink:href="#mca591ca13b" x="52.635938" y="133.80125" style="stroke: #000000; stroke-width: 0.8"/>
      </g>
     </g>
     <g id="text_15">
      <!-- $\mathdefault{10^{-2}}$ -->
      <g transform="translate(23.915938 139.117812) scale(0.12 -0.12)">
       <use xlink:href="#TimesNewRomanPSMT-31" transform="translate(0 0.582813)"/>
       <use xlink:href="#TimesNewRomanPSMT-30" transform="translate(50 0.582813)"/>
       <use xlink:href="#TimesNewRomanPSMT-2212" transform="translate(101.502813 60.695312) scale(0.7)"/>
       <use xlink:href="#TimesNewRomanPSMT-32" transform="translate(140.980352 60.695312) scale(0.7)"/>
      </g>
     </g>
    </g>
    <g id="ytick_6">
     <g id="line2d_29">
      <path d="M 52.635938 78.36125 
L 499.035937 78.36125 
" clip-path="url(#p2fad32db10)" style="fill: none; stroke: #b0b0b0; stroke-opacity: 0.3; stroke-width: 0.8; stroke-linecap: square"/>
     </g>
     <g id="line2d_30">
      <g>
       <use xlink:href="#mca591ca13b" x="52.635938" y="78.36125" style="stroke: #000000; stroke-width: 0.8"/>
      </g>
     </g>
     <g id="text_16">
      <!-- $\mathdefault{10^{-1}}$ -->
      <g transform="translate(23.915938 83.677812) scale(0.12 -0.12)">
       <use xlink:href="#TimesNewRomanPSMT-31" transform="translate(0 0.582813)"/>
       <use xlink:href="#TimesNewRomanPSMT-30" transform="translate(50 0.582813)"/>
       <use xlink:href="#TimesNewRomanPSMT-2212" transform="translate(101.502813 60.695312) scale(0.7)"/>
       <use xlink:href="#TimesNewRomanPSMT-31" transform="translate(140.980352 60.695312) scale(0.7)"/>
      </g>
     </g>
    </g>
    <g id="ytick_7">
     <g id="line2d_31">
      <path d="M 52.635938 22.92125 
L 499.035937 22.92125 
" clip-path="url(#p2fad32db10)" style="fill: none; stroke: #b0b0b0; stroke-opacity: 0.3; stroke-width: 0.8; stroke-linecap: square"/>
     </g>
     <g id="line2d_32">
      <g>
       <use xlink:href="#mca591ca13b" x="52.635938" y="22.92125" style="stroke: #000000; stroke-width: 0.8"/>
      </g>
     </g>
     <g id="text_17">
      <!-- $\mathdefault{10^{0}}$ -->
      <g transform="translate(28.715938 28.237812) scale(0.12 -0.12)">
       <use xlink:href="#TimesNewRomanPSMT-31" transform="translate(0 0.582813)"/>
       <use xlink:href="#TimesNewRomanPSMT-30" transform="translate(50 0.582813)"/>
       <use xlink:href="#TimesNewRomanPSMT-30" transform="translate(101.502813 60.695312) scale(0.7)"/>
      </g>
     </g>
    </g>
    <g id="ytick_8">
     <g id="line2d_33">
      <path d="M 52.635938 338.872147 
L 499.035937 338.872147 
" clip-path="url(#p2fad32db10)" style="fill: none; stroke: #b0b0b0; stroke-opacity: 0.3; stroke-width: 0.8; stroke-linecap: square"/>
     </g>
     <g id="line2d_34">
      <defs>
       <path id="m437f85867e" d="M 0 0 
L -2 0 
" style="stroke: #000000; stroke-width: 0.6"/>
      </defs>
      <g>
       <use xlink:href="#m437f85867e" x="52.635938" y="338.872147" style="stroke: #000000; stroke-width: 0.6"/>
      </g>
     </g>
    </g>
    <g id="ytick_9">
     <g id="line2d_35">
      <path d="M 52.635938 329.109648 
L 499.035937 329.109648 
" clip-path="url(#p2fad32db10)" style="fill: none; stroke: #b0b0b0; stroke-opacity: 0.3; stroke-width: 0.8; stroke-linecap: square"/>
     </g>
     <g id="line2d_36">
      <g>
       <use xlink:href="#m437f85867e" x="52.635938" y="329.109648" style="stroke: #000000; stroke-width: 0.6"/>
      </g>
     </g>
    </g>
    <g id="ytick_10">
     <g id="line2d_37">
      <path d="M 52.635938 322.183044 
L 499.035937 322.183044 
" clip-path="url(#p2fad32db10)" style="fill: none; stroke: #b0b0b0; stroke-opacity: 0.3; stroke-width: 0.8; stroke-linecap: square"/>
     </g>
     <g id="line2d_38">
      <g>
       <use xlink:href="#m437f85867e" x="52.635938" y="322.183044" style="stroke: #000000; stroke-width: 0.6"/>
      </g>
     </g>
    </g>
    <g id="ytick_11">
     <g id="line2d_39">
      <path d="M 52.635938 316.810353 
L 499.035937 316.810353 
" clip-path="url(#p2fad32db10)" style="fill: none; stroke: #b0b0b0; stroke-opacity: 0.3; stroke-width: 0.8; stroke-linecap: square"/>
     </g>
     <g id="line2d_40">
      <g>
       <use xlink:href="#m437f85867e" x="52.635938" y="316.810353" style="stroke: #000000; stroke-width: 0.6"/>
      </g>
     </g>
    </g>
    <g id="ytick_12">
     <g id="line2d_41">
      <path d="M 52.635938 312.420545 
L 499.035937 312.420545 
" clip-path="url(#p2fad32db10)" style="fill: none; stroke: #b0b0b0; stroke-opacity: 0.3; stroke-width: 0.8; stroke-linecap: square"/>
     </g>
     <g id="line2d_42">
      <g>
       <use xlink:href="#m437f85867e" x="52.635938" y="312.420545" style="stroke: #000000; stroke-width: 0.6"/>
      </g>
     </g>
    </g>
    <g id="ytick_13">
     <g id="line2d_43">
      <path d="M 52.635938 308.709015 
L 499.035937 308.709015 
" clip-path="url(#p2fad32db10)" style="fill: none; stroke: #b0b0b0; stroke-opacity: 0.3; stroke-width: 0.8; stroke-linecap: square"/>
     </g>
     <g id="line2d_44">
      <g>
       <use xlink:href="#m437f85867e" x="52.635938" y="308.709015" style="stroke: #000000; stroke-width: 0.6"/>
      </g>
     </g>
    </g>
    <g id="ytick_14">
     <g id="line2d_45">
      <path d="M 52.635938 305.493941 
L 499.035937 305.493941 
" clip-path="url(#p2fad32db10)" style="fill: none; stroke: #b0b0b0; stroke-opacity: 0.3; stroke-width: 0.8; stroke-linecap: square"/>
     </g>
     <g id="line2d_46">
      <g>
       <use xlink:href="#m437f85867e" x="52.635938" y="305.493941" style="stroke: #000000; stroke-width: 0.6"/>
      </g>
     </g>
    </g>
    <g id="ytick_15">
     <g id="line2d_47">
      <path d="M 52.635938 302.658045 
L 499.035937 302.658045 
" clip-path="url(#p2fad32db10)" style="fill: none; stroke: #b0b0b0; stroke-opacity: 0.3; stroke-width: 0.8; stroke-linecap: square"/>
     </g>
     <g id="line2d_48">
      <g>
       <use xlink:href="#m437f85867e" x="52.635938" y="302.658045" style="stroke: #000000; stroke-width: 0.6"/>
      </g>
     </g>
    </g>
    <g id="ytick_16">
     <g id="line2d_49">
      <path d="M 52.635938 283.432147 
L 499.035937 283.432147 
" clip-path="url(#p2fad32db10)" style="fill: none; stroke: #b0b0b0; stroke-opacity: 0.3; stroke-width: 0.8; stroke-linecap: square"/>
     </g>
     <g id="line2d_50">
      <g>
       <use xlink:href="#m437f85867e" x="52.635938" y="283.432147" style="stroke: #000000; stroke-width: 0.6"/>
      </g>
     </g>
    </g>
    <g id="ytick_17">
     <g id="line2d_51">
      <path d="M 52.635938 273.669648 
L 499.035937 273.669648 
" clip-path="url(#p2fad32db10)" style="fill: none; stroke: #b0b0b0; stroke-opacity: 0.3; stroke-width: 0.8; stroke-linecap: square"/>
     </g>
     <g id="line2d_52">
      <g>
       <use xlink:href="#m437f85867e" x="52.635938" y="273.669648" style="stroke: #000000; stroke-width: 0.6"/>
      </g>
     </g>
    </g>
    <g id="ytick_18">
     <g id="line2d_53">
      <path d="M 52.635938 266.743044 
L 499.035937 266.743044 
" clip-path="url(#p2fad32db10)" style="fill: none; stroke: #b0b0b0; stroke-opacity: 0.3; stroke-width: 0.8; stroke-linecap: square"/>
     </g>
     <g id="line2d_54">
      <g>
       <use xlink:href="#m437f85867e" x="52.635938" y="266.743044" style="stroke: #000000; stroke-width: 0.6"/>
      </g>
     </g>
    </g>
    <g id="ytick_19">
     <g id="line2d_55">
      <path d="M 52.635938 261.370353 
L 499.035937 261.370353 
" clip-path="url(#p2fad32db10)" style="fill: none; stroke: #b0b0b0; stroke-opacity: 0.3; stroke-width: 0.8; stroke-linecap: square"/>
     </g>
     <g id="line2d_56">
      <g>
       <use xlink:href="#m437f85867e" x="52.635938" y="261.370353" style="stroke: #000000; stroke-width: 0.6"/>
      </g>
     </g>
    </g>
    <g id="ytick_20">
     <g id="line2d_57">
      <path d="M 52.635938 256.980545 
L 499.035937 256.980545 
" clip-path="url(#p2fad32db10)" style="fill: none; stroke: #b0b0b0; stroke-opacity: 0.3; stroke-width: 0.8; stroke-linecap: square"/>
     </g>
     <g id="line2d_58">
      <g>
       <use xlink:href="#m437f85867e" x="52.635938" y="256.980545" style="stroke: #000000; stroke-width: 0.6"/>
      </g>
     </g>
    </g>
    <g id="ytick_21">
     <g id="line2d_59">
      <path d="M 52.635938 253.269015 
L 499.035937 253.269015 
" clip-path="url(#p2fad32db10)" style="fill: none; stroke: #b0b0b0; stroke-opacity: 0.3; stroke-width: 0.8; stroke-linecap: square"/>
     </g>
     <g id="line2d_60">
      <g>
       <use xlink:href="#m437f85867e" x="52.635938" y="253.269015" style="stroke: #000000; stroke-width: 0.6"/>
      </g>
     </g>
    </g>
    <g id="ytick_22">
     <g id="line2d_61">
      <path d="M 52.635938 250.053941 
L 499.035937 250.053941 
" clip-path="url(#p2fad32db10)" style="fill: none; stroke: #b0b0b0; stroke-opacity: 0.3; stroke-width: 0.8; stroke-linecap: square"/>
     </g>
     <g id="line2d_62">
      <g>
       <use xlink:href="#m437f85867e" x="52.635938" y="250.053941" style="stroke: #000000; stroke-width: 0.6"/>
      </g>
     </g>
    </g>
    <g id="ytick_23">
     <g id="line2d_63">
      <path d="M 52.635938 247.218045 
L 499.035937 247.218045 
" clip-path="url(#p2fad32db10)" style="fill: none; stroke: #b0b0b0; stroke-opacity: 0.3; stroke-width: 0.8; stroke-linecap: square"/>
     </g>
     <g id="line2d_64">
      <g>
       <use xlink:href="#m437f85867e" x="52.635938" y="247.218045" style="stroke: #000000; stroke-width: 0.6"/>
      </g>
     </g>
    </g>
    <g id="ytick_24">
     <g id="line2d_65">
      <path d="M 52.635938 227.992147 
L 499.035937 227.992147 
" clip-path="url(#p2fad32db10)" style="fill: none; stroke: #b0b0b0; stroke-opacity: 0.3; stroke-width: 0.8; stroke-linecap: square"/>
     </g>
     <g id="line2d_66">
      <g>
       <use xlink:href="#m437f85867e" x="52.635938" y="227.992147" style="stroke: #000000; stroke-width: 0.6"/>
      </g>
     </g>
    </g>
    <g id="ytick_25">
     <g id="line2d_67">
      <path d="M 52.635938 218.229648 
L 499.035937 218.229648 
" clip-path="url(#p2fad32db10)" style="fill: none; stroke: #b0b0b0; stroke-opacity: 0.3; stroke-width: 0.8; stroke-linecap: square"/>
     </g>
     <g id="line2d_68">
      <g>
       <use xlink:href="#m437f85867e" x="52.635938" y="218.229648" style="stroke: #000000; stroke-width: 0.6"/>
      </g>
     </g>
    </g>
    <g id="ytick_26">
     <g id="line2d_69">
      <path d="M 52.635938 211.303044 
L 499.035937 211.303044 
" clip-path="url(#p2fad32db10)" style="fill: none; stroke: #b0b0b0; stroke-opacity: 0.3; stroke-width: 0.8; stroke-linecap: square"/>
     </g>
     <g id="line2d_70">
      <g>
       <use xlink:href="#m437f85867e" x="52.635938" y="211.303044" style="stroke: #000000; stroke-width: 0.6"/>
      </g>
     </g>
    </g>
    <g id="ytick_27">
     <g id="line2d_71">
      <path d="M 52.635938 205.930353 
L 499.035937 205.930353 
" clip-path="url(#p2fad32db10)" style="fill: none; stroke: #b0b0b0; stroke-opacity: 0.3; stroke-width: 0.8; stroke-linecap: square"/>
     </g>
     <g id="line2d_72">
      <g>
       <use xlink:href="#m437f85867e" x="52.635938" y="205.930353" style="stroke: #000000; stroke-width: 0.6"/>
      </g>
     </g>
    </g>
    <g id="ytick_28">
     <g id="line2d_73">
      <path d="M 52.635938 201.540545 
L 499.035937 201.540545 
" clip-path="url(#p2fad32db10)" style="fill: none; stroke: #b0b0b0; stroke-opacity: 0.3; stroke-width: 0.8; stroke-linecap: square"/>
     </g>
     <g id="line2d_74">
      <g>
       <use xlink:href="#m437f85867e" x="52.635938" y="201.540545" style="stroke: #000000; stroke-width: 0.6"/>
      </g>
     </g>
    </g>
    <g id="ytick_29">
     <g id="line2d_75">
      <path d="M 52.635938 197.829015 
L 499.035937 197.829015 
" clip-path="url(#p2fad32db10)" style="fill: none; stroke: #b0b0b0; stroke-opacity: 0.3; stroke-width: 0.8; stroke-linecap: square"/>
     </g>
     <g id="line2d_76">
      <g>
       <use xlink:href="#m437f85867e" x="52.635938" y="197.829015" style="stroke: #000000; stroke-width: 0.6"/>
      </g>
     </g>
    </g>
    <g id="ytick_30">
     <g id="line2d_77">
      <path d="M 52.635938 194.613941 
L 499.035937 194.613941 
" clip-path="url(#p2fad32db10)" style="fill: none; stroke: #b0b0b0; stroke-opacity: 0.3; stroke-width: 0.8; stroke-linecap: square"/>
     </g>
     <g id="line2d_78">
      <g>
       <use xlink:href="#m437f85867e" x="52.635938" y="194.613941" style="stroke: #000000; stroke-width: 0.6"/>
      </g>
     </g>
    </g>
    <g id="ytick_31">
     <g id="line2d_79">
      <path d="M 52.635938 191.778045 
L 499.035937 191.778045 
" clip-path="url(#p2fad32db10)" style="fill: none; stroke: #b0b0b0; stroke-opacity: 0.3; stroke-width: 0.8; stroke-linecap: square"/>
     </g>
     <g id="line2d_80">
      <g>
       <use xlink:href="#m437f85867e" x="52.635938" y="191.778045" style="stroke: #000000; stroke-width: 0.6"/>
      </g>
     </g>
    </g>
    <g id="ytick_32">
     <g id="line2d_81">
      <path d="M 52.635938 172.552147 
L 499.035937 172.552147 
" clip-path="url(#p2fad32db10)" style="fill: none; stroke: #b0b0b0; stroke-opacity: 0.3; stroke-width: 0.8; stroke-linecap: square"/>
     </g>
     <g id="line2d_82">
      <g>
       <use xlink:href="#m437f85867e" x="52.635938" y="172.552147" style="stroke: #000000; stroke-width: 0.6"/>
      </g>
     </g>
    </g>
    <g id="ytick_33">
     <g id="line2d_83">
      <path d="M 52.635938 162.789648 
L 499.035937 162.789648 
" clip-path="url(#p2fad32db10)" style="fill: none; stroke: #b0b0b0; stroke-opacity: 0.3; stroke-width: 0.8; stroke-linecap: square"/>
     </g>
     <g id="line2d_84">
      <g>
       <use xlink:href="#m437f85867e" x="52.635938" y="162.789648" style="stroke: #000000; stroke-width: 0.6"/>
      </g>
     </g>
    </g>
    <g id="ytick_34">
     <g id="line2d_85">
      <path d="M 52.635938 155.863044 
L 499.035937 155.863044 
" clip-path="url(#p2fad32db10)" style="fill: none; stroke: #b0b0b0; stroke-opacity: 0.3; stroke-width: 0.8; stroke-linecap: square"/>
     </g>
     <g id="line2d_86">
      <g>
       <use xlink:href="#m437f85867e" x="52.635938" y="155.863044" style="stroke: #000000; stroke-width: 0.6"/>
      </g>
     </g>
    </g>
    <g id="ytick_35">
     <g id="line2d_87">
      <path d="M 52.635938 150.490353 
L 499.035937 150.490353 
" clip-path="url(#p2fad32db10)" style="fill: none; stroke: #b0b0b0; stroke-opacity: 0.3; stroke-width: 0.8; stroke-linecap: square"/>
     </g>
     <g id="line2d_88">
      <g>
       <use xlink:href="#m437f85867e" x="52.635938" y="150.490353" style="stroke: #000000; stroke-width: 0.6"/>
      </g>
     </g>
    </g>
    <g id="ytick_36">
     <g id="line2d_89">
      <path d="M 52.635938 146.100545 
L 499.035937 146.100545 
" clip-path="url(#p2fad32db10)" style="fill: none; stroke: #b0b0b0; stroke-opacity: 0.3; stroke-width: 0.8; stroke-linecap: square"/>
     </g>
     <g id="line2d_90">
      <g>
       <use xlink:href="#m437f85867e" x="52.635938" y="146.100545" style="stroke: #000000; stroke-width: 0.6"/>
      </g>
     </g>
    </g>
    <g id="ytick_37">
     <g id="line2d_91">
      <path d="M 52.635938 142.389015 
L 499.035937 142.389015 
" clip-path="url(#p2fad32db10)" style="fill: none; stroke: #b0b0b0; stroke-opacity: 0.3; stroke-width: 0.8; stroke-linecap: square"/>
     </g>
     <g id="line2d_92">
      <g>
       <use xlink:href="#m437f85867e" x="52.635938" y="142.389015" style="stroke: #000000; stroke-width: 0.6"/>
      </g>
     </g>
    </g>
    <g id="ytick_38">
     <g id="line2d_93">
      <path d="M 52.635938 139.173941 
L 499.035937 139.173941 
" clip-path="url(#p2fad32db10)" style="fill: none; stroke: #b0b0b0; stroke-opacity: 0.3; stroke-width: 0.8; stroke-linecap: square"/>
     </g>
     <g id="line2d_94">
      <g>
       <use xlink:href="#m437f85867e" x="52.635938" y="139.173941" style="stroke: #000000; stroke-width: 0.6"/>
      </g>
     </g>
    </g>
    <g id="ytick_39">
     <g id="line2d_95">
      <path d="M 52.635938 136.338045 
L 499.035937 136.338045 
" clip-path="url(#p2fad32db10)" style="fill: none; stroke: #b0b0b0; stroke-opacity: 0.3; stroke-width: 0.8; stroke-linecap: square"/>
     </g>
     <g id="line2d_96">
      <g>
       <use xlink:href="#m437f85867e" x="52.635938" y="136.338045" style="stroke: #000000; stroke-width: 0.6"/>
      </g>
     </g>
    </g>
    <g id="ytick_40">
     <g id="line2d_97">
      <path d="M 52.635938 117.112147 
L 499.035937 117.112147 
" clip-path="url(#p2fad32db10)" style="fill: none; stroke: #b0b0b0; stroke-opacity: 0.3; stroke-width: 0.8; stroke-linecap: square"/>
     </g>
     <g id="line2d_98">
      <g>
       <use xlink:href="#m437f85867e" x="52.635938" y="117.112147" style="stroke: #000000; stroke-width: 0.6"/>
      </g>
     </g>
    </g>
    <g id="ytick_41">
     <g id="line2d_99">
      <path d="M 52.635938 107.349648 
L 499.035937 107.349648 
" clip-path="url(#p2fad32db10)" style="fill: none; stroke: #b0b0b0; stroke-opacity: 0.3; stroke-width: 0.8; stroke-linecap: square"/>
     </g>
     <g id="line2d_100">
      <g>
       <use xlink:href="#m437f85867e" x="52.635938" y="107.349648" style="stroke: #000000; stroke-width: 0.6"/>
      </g>
     </g>
    </g>
    <g id="ytick_42">
     <g id="line2d_101">
      <path d="M 52.635938 100.423044 
L 499.035937 100.423044 
" clip-path="url(#p2fad32db10)" style="fill: none; stroke: #b0b0b0; stroke-opacity: 0.3; stroke-width: 0.8; stroke-linecap: square"/>
     </g>
     <g id="line2d_102">
      <g>
       <use xlink:href="#m437f85867e" x="52.635938" y="100.423044" style="stroke: #000000; stroke-width: 0.6"/>
      </g>
     </g>
    </g>
    <g id="ytick_43">
     <g id="line2d_103">
      <path d="M 52.635938 95.050353 
L 499.035937 95.050353 
" clip-path="url(#p2fad32db10)" style="fill: none; stroke: #b0b0b0; stroke-opacity: 0.3; stroke-width: 0.8; stroke-linecap: square"/>
     </g>
     <g id="line2d_104">
      <g>
       <use xlink:href="#m437f85867e" x="52.635938" y="95.050353" style="stroke: #000000; stroke-width: 0.6"/>
      </g>
     </g>
    </g>
    <g id="ytick_44">
     <g id="line2d_105">
      <path d="M 52.635938 90.660545 
L 499.035937 90.660545 
" clip-path="url(#p2fad32db10)" style="fill: none; stroke: #b0b0b0; stroke-opacity: 0.3; stroke-width: 0.8; stroke-linecap: square"/>
     </g>
     <g id="line2d_106">
      <g>
       <use xlink:href="#m437f85867e" x="52.635938" y="90.660545" style="stroke: #000000; stroke-width: 0.6"/>
      </g>
     </g>
    </g>
    <g id="ytick_45">
     <g id="line2d_107">
      <path d="M 52.635938 86.949015 
L 499.035937 86.949015 
" clip-path="url(#p2fad32db10)" style="fill: none; stroke: #b0b0b0; stroke-opacity: 0.3; stroke-width: 0.8; stroke-linecap: square"/>
     </g>
     <g id="line2d_108">
      <g>
       <use xlink:href="#m437f85867e" x="52.635938" y="86.949015" style="stroke: #000000; stroke-width: 0.6"/>
      </g>
     </g>
    </g>
    <g id="ytick_46">
     <g id="line2d_109">
      <path d="M 52.635938 83.733941 
L 499.035937 83.733941 
" clip-path="url(#p2fad32db10)" style="fill: none; stroke: #b0b0b0; stroke-opacity: 0.3; stroke-width: 0.8; stroke-linecap: square"/>
     </g>
     <g id="line2d_110">
      <g>
       <use xlink:href="#m437f85867e" x="52.635938" y="83.733941" style="stroke: #000000; stroke-width: 0.6"/>
      </g>
     </g>
    </g>
    <g id="ytick_47">
     <g id="line2d_111">
      <path d="M 52.635938 80.898045 
L 499.035937 80.898045 
" clip-path="url(#p2fad32db10)" style="fill: none; stroke: #b0b0b0; stroke-opacity: 0.3; stroke-width: 0.8; stroke-linecap: square"/>
     </g>
     <g id="line2d_112">
      <g>
       <use xlink:href="#m437f85867e" x="52.635938" y="80.898045" style="stroke: #000000; stroke-width: 0.6"/>
      </g>
     </g>
    </g>
    <g id="ytick_48">
     <g id="line2d_113">
      <path d="M 52.635938 61.672147 
L 499.035937 61.672147 
" clip-path="url(#p2fad32db10)" style="fill: none; stroke: #b0b0b0; stroke-opacity: 0.3; stroke-width: 0.8; stroke-linecap: square"/>
     </g>
     <g id="line2d_114">
      <g>
       <use xlink:href="#m437f85867e" x="52.635938" y="61.672147" style="stroke: #000000; stroke-width: 0.6"/>
      </g>
     </g>
    </g>
    <g id="ytick_49">
     <g id="line2d_115">
      <path d="M 52.635938 51.909648 
L 499.035937 51.909648 
" clip-path="url(#p2fad32db10)" style="fill: none; stroke: #b0b0b0; stroke-opacity: 0.3; stroke-width: 0.8; stroke-linecap: square"/>
     </g>
     <g id="line2d_116">
      <g>
       <use xlink:href="#m437f85867e" x="52.635938" y="51.909648" style="stroke: #000000; stroke-width: 0.6"/>
      </g>
     </g>
    </g>
    <g id="ytick_50">
     <g id="line2d_117">
      <path d="M 52.635938 44.983044 
L 499.035937 44.983044 
" clip-path="url(#p2fad32db10)" style="fill: none; stroke: #b0b0b0; stroke-opacity: 0.3; stroke-width: 0.8; stroke-linecap: square"/>
     </g>
     <g id="line2d_118">
      <g>
       <use xlink:href="#m437f85867e" x="52.635938" y="44.983044" style="stroke: #000000; stroke-width: 0.6"/>
      </g>
     </g>
    </g>
    <g id="ytick_51">
     <g id="line2d_119">
      <path d="M 52.635938 39.610353 
L 499.035937 39.610353 
" clip-path="url(#p2fad32db10)" style="fill: none; stroke: #b0b0b0; stroke-opacity: 0.3; stroke-width: 0.8; stroke-linecap: square"/>
     </g>
     <g id="line2d_120">
      <g>
       <use xlink:href="#m437f85867e" x="52.635938" y="39.610353" style="stroke: #000000; stroke-width: 0.6"/>
      </g>
     </g>
    </g>
    <g id="ytick_52">
     <g id="line2d_121">
      <path d="M 52.635938 35.220545 
L 499.035937 35.220545 
" clip-path="url(#p2fad32db10)" style="fill: none; stroke: #b0b0b0; stroke-opacity: 0.3; stroke-width: 0.8; stroke-linecap: square"/>
     </g>
     <g id="line2d_122">
      <g>
       <use xlink:href="#m437f85867e" x="52.635938" y="35.220545" style="stroke: #000000; stroke-width: 0.6"/>
      </g>
     </g>
    </g>
    <g id="ytick_53">
     <g id="line2d_123">
      <path d="M 52.635938 31.509015 
L 499.035937 31.509015 
" clip-path="url(#p2fad32db10)" style="fill: none; stroke: #b0b0b0; stroke-opacity: 0.3; stroke-width: 0.8; stroke-linecap: square"/>
     </g>
     <g id="line2d_124">
      <g>
       <use xlink:href="#m437f85867e" x="52.635938" y="31.509015" style="stroke: #000000; stroke-width: 0.6"/>
      </g>
     </g>
    </g>
    <g id="ytick_54">
     <g id="line2d_125">
      <path d="M 52.635938 28.293941 
L 499.035937 28.293941 
" clip-path="url(#p2fad32db10)" style="fill: none; stroke: #b0b0b0; stroke-opacity: 0.3; stroke-width: 0.8; stroke-linecap: square"/>
     </g>
     <g id="line2d_126">
      <g>
       <use xlink:href="#m437f85867e" x="52.635938" y="28.293941" style="stroke: #000000; stroke-width: 0.6"/>
      </g>
     </g>
    </g>
    <g id="ytick_55">
     <g id="line2d_127">
      <path d="M 52.635938 25.458045 
L 499.035937 25.458045 
" clip-path="url(#p2fad32db10)" style="fill: none; stroke: #b0b0b0; stroke-opacity: 0.3; stroke-width: 0.8; stroke-linecap: square"/>
     </g>
     <g id="line2d_128">
      <g>
       <use xlink:href="#m437f85867e" x="52.635938" y="25.458045" style="stroke: #000000; stroke-width: 0.6"/>
      </g>
     </g>
    </g>
    <g id="text_18">
     <!-- Bit Error Rate (BER) -->
     <g transform="translate(16.92125 248.921719) rotate(-90) scale(0.14 -0.14)">
      <defs>
       <path id="TimesNewRomanPSMT-6f" d="M 1600 2947 
Q 2250 2947 2644 2453 
Q 2978 2031 2978 1484 
Q 2978 1100 2793 706 
Q 2609 313 2286 112 
Q 1963 -88 1566 -88 
Q 919 -88 538 428 
Q 216 863 216 1403 
Q 216 1797 411 2186 
Q 606 2575 925 2761 
Q 1244 2947 1600 2947 
z
M 1503 2744 
Q 1338 2744 1170 2645 
Q 1003 2547 900 2300 
Q 797 2053 797 1666 
Q 797 1041 1045 587 
Q 1294 134 1700 134 
Q 2003 134 2200 384 
Q 2397 634 2397 1244 
Q 2397 2006 2069 2444 
Q 1847 2744 1503 2744 
z
" transform="scale(0.015625)"/>
      </defs>
      <use xlink:href="#TimesNewRomanPSMT-42"/>
      <use xlink:href="#TimesNewRomanPSMT-69" transform="translate(66.699219 0)"/>
      <use xlink:href="#TimesNewRomanPSMT-74" transform="translate(94.482422 0)"/>
      <use xlink:href="#TimesNewRomanPSMT-20" transform="translate(122.265625 0)"/>
      <use xlink:href="#TimesNewRomanPSMT-45" transform="translate(147.265625 0)"/>
      <use xlink:href="#TimesNewRomanPSMT-72" transform="translate(208.349609 0)"/>
      <use xlink:href="#TimesNewRomanPSMT-72" transform="translate(241.650391 0)"/>
      <use xlink:href="#TimesNewRomanPSMT-6f" transform="translate(274.951172 0)"/>
      <use xlink:href="#TimesNewRomanPSMT-72" transform="translate(324.951172 0)"/>
      <use xlink:href="#TimesNewRomanPSMT-20" transform="translate(358.251953 0)"/>
      <use xlink:href="#TimesNewRomanPSMT-52" transform="translate(383.251953 0)"/>
      <use xlink:href="#TimesNewRomanPSMT-61" transform="translate(449.951172 0)"/>
      <use xlink:href="#TimesNewRomanPSMT-74" transform="translate(494.335938 0)"/>
      <use xlink:href="#TimesNewRomanPSMT-65" transform="translate(522.119141 0)"/>
      <use xlink:href="#TimesNewRomanPSMT-20" transform="translate(566.503906 0)"/>
      <use xlink:href="#TimesNewRomanPSMT-28" transform="translate(591.503906 0)"/>
      <use xlink:href="#TimesNewRomanPSMT-42" transform="translate(624.804688 0)"/>
      <use xlink:href="#TimesNewRomanPSMT-45" transform="translate(691.503906 0)"/>
      <use xlink:href="#TimesNewRomanPSMT-52" transform="translate(752.587891 0)"/>
      <use xlink:href="#TimesNewRomanPSMT-29" transform="translate(819.287109 0)"/>
     </g>
    </g>
   </g>
   <g id="line2d_129">
    <path d="M 52.635938 50.771095 
L 57.145028 51.081138 
L 61.654119 51.400831 
L 66.16321 51.730518 
L 70.672301 52.07056 
L 75.181392 52.421331 
L 79.690483 52.783222 
L 84.199574 53.156638 
L 88.708665 53.542002 
L 93.217756 53.939757 
L 97.726847 54.35036 
L 102.235938 54.774292 
L 106.745028 55.212051 
L 111.254119 55.664158 
L 115.76321 56.131156 
L 120.272301 56.61361 
L 124.781392 57.112113 
L 129.290483 57.627279 
L 133.799574 58.159752 
L 138.308665 58.710203 
L 142.817756 59.279332 
L 147.326847 59.867869 
L 151.835938 60.476579 
L 156.345028 61.106258 
L 160.854119 61.757739 
L 165.36321 62.431891 
L 169.872301 63.129622 
L 174.381392 63.851881 
L 178.890483 64.59966 
L 183.399574 65.373995 
L 187.908665 66.175969 
L 192.417756 67.006714 
L 196.926847 67.867414 
L 201.435938 68.759306 
L 205.945028 69.683685 
L 210.454119 70.641903 
L 214.96321 71.635375 
L 219.472301 72.665583 
L 223.981392 73.734076 
L 228.490483 74.842473 
L 232.999574 75.99247 
L 237.508665 77.185842 
L 242.017756 78.424445 
L 246.526847 79.710222 
L 251.035938 81.045208 
L 255.545028 82.431531 
L 260.054119 83.871421 
L 264.56321 85.367211 
L 269.072301 86.921343 
L 273.581392 88.536378 
L 278.090483 90.214992 
L 282.599574 91.959992 
L 287.108665 93.774315 
L 291.617756 95.661038 
L 296.126847 97.623383 
L 300.635938 99.664726 
L 305.145028 101.788602 
L 309.654119 103.998716 
L 314.16321 106.298945 
L 318.672301 108.693356 
L 323.181392 111.186205 
L 327.690483 113.781953 
L 332.199574 116.485273 
L 336.708665 119.301063 
L 341.217756 122.234452 
L 345.726847 125.290816 
L 350.235938 128.475786 
L 354.745028 131.795263 
L 359.254119 135.255432 
L 363.76321 138.862771 
L 368.272301 142.624068 
L 372.781392 146.546439 
L 377.290483 150.637338 
L 381.799574 154.904576 
L 386.308665 159.356337 
L 390.817756 164.0012 
L 395.326847 168.848151 
L 399.835938 173.906609 
L 404.345028 179.186442 
L 408.854119 184.697993 
L 413.36321 190.452097 
L 417.872301 196.46011 
L 422.381392 202.733931 
L 426.890483 209.286029 
L 431.399574 216.129468 
L 435.908665 223.277938 
L 440.417756 230.745787 
L 444.926847 238.548045 
L 449.435938 246.700463 
L 453.945028 255.219546 
L 458.454119 264.122587 
L 462.96321 273.427708 
L 467.472301 283.153894 
L 471.981392 293.321041 
L 476.490483 303.949994 
L 480.999574 315.062593 
L 485.508665 326.681725 
L 490.017756 338.831368 
L 494.526847 351.536644 
L 499.035938 364.823878 
" clip-path="url(#p2fad32db10)" style="fill: none; stroke: #0072b2; stroke-width: 2; stroke-linecap: square"/>
   </g>
   <g id="line2d_130">
    <path d="M 52.635938 57.081234 
L 57.145028 57.595365 
L 61.654119 58.126764 
L 66.16321 58.676098 
L 70.672301 59.244066 
L 75.181392 59.831398 
L 79.690483 60.438855 
L 84.199574 61.067232 
L 88.708665 61.717358 
L 93.217756 62.390101 
L 97.726847 63.086367 
L 102.235938 63.807103 
L 106.745028 64.553296 
L 111.254119 65.32598 
L 115.76321 66.126237 
L 120.272301 66.955193 
L 124.781392 67.814031 
L 129.290483 68.703984 
L 133.799574 69.626343 
L 138.308665 70.582456 
L 142.817756 71.573737 
L 147.326847 72.60166 
L 151.835938 73.667772 
L 156.345028 74.773687 
L 160.854119 75.921096 
L 165.36321 77.11177 
L 169.872301 78.347559 
L 174.381392 79.630401 
L 178.890483 80.962325 
L 183.399574 82.345454 
L 187.908665 83.782011 
L 192.417756 85.274322 
L 196.926847 86.824824 
L 201.435938 88.436068 
L 205.945028 90.110725 
L 210.454119 91.851592 
L 214.96321 93.6616 
L 219.472301 95.543815 
L 223.981392 97.501452 
L 228.490483 99.537877 
L 232.999574 101.656615 
L 237.508665 103.861358 
L 242.017756 106.155976 
L 246.526847 108.544522 
L 251.035938 111.03124 
L 255.545028 113.62058 
L 260.054119 116.317201 
L 264.56321 119.125985 
L 269.072301 122.052049 
L 273.581392 125.100753 
L 278.090483 128.277712 
L 282.599574 131.58881 
L 287.108665 135.040214 
L 291.617756 138.638384 
L 296.126847 142.39009 
L 300.635938 146.302426 
L 305.145028 150.382824 
L 309.654119 154.639074 
L 314.16321 159.079338 
L 318.672301 163.712168 
L 323.181392 168.546527 
L 327.690483 173.591805 
L 332.199574 178.857843 
L 336.708665 184.354954 
L 341.217756 190.093943 
L 345.726847 196.086132 
L 350.235938 202.343388 
L 354.745028 208.878142 
L 359.254119 215.703424 
L 363.76321 222.832883 
L 368.272301 230.280826 
L 372.781392 238.062242 
L 377.290483 246.192835 
L 381.799574 254.689065 
L 386.308665 263.568174 
L 390.817756 272.848233 
L 395.326847 282.548174 
L 399.835938 292.687835 
L 404.345028 303.288002 
L 408.854119 314.370455 
L 413.36321 325.958013 
L 417.872301 338.074587 
L 422.381392 350.745228 
L 426.890483 363.996186 
L 431.399574 377.854961 
L 435.908665 392.350371 
L 437.700792 398.376562 
" clip-path="url(#p2fad32db10)" style="fill: none; stroke: #d55e00; stroke-width: 2; stroke-linecap: square"/>
   </g>
   <g id="line2d_131">
    <path d="M 52.635938 112.722339 
L 499.035937 112.722339 
" clip-path="url(#p2fad32db10)" style="fill: none; stroke-dasharray: 1.5,2.475; stroke-dashoffset: 0; stroke: #000000; stroke-width: 1.5"/>
   </g>
   <g id="patch_3">
    <path d="M 52.635938 355.56125 
L 52.635938 22.92125 
" style="fill: none; stroke: #000000; stroke-width: 0.8; stroke-linejoin: miter; stroke-linecap: square"/>
   </g>
   <g id="patch_4">
    <path d="M 499.035937 355.56125 
L 499.035937 22.92125 
" style="fill: none; stroke: #000000; stroke-width: 0.8; stroke-linejoin: miter; stroke-linecap: square"/>
   </g>
   <g id="patch_5">
    <path d="M 52.635938 355.56125 
L 499.035938 355.56125 
" style="fill: none; stroke: #000000; stroke-width: 0.8; stroke-linejoin: miter; stroke-linecap: square"/>
   </g>
   <g id="patch_6">
    <path d="M 52.635938 22.92125 
L 499.035938 22.92125 
" style="fill: none; stroke: #000000; stroke-width: 0.8; stroke-linejoin: miter; stroke-linecap: square"/>
   </g>
   <g id="patch_7">
    <path d="M 316.074347 142.736944 
Q 342.227409 185.362679 368.380471 227.988413 
L 371.789891 225.89656 
Q 372.371336 232.580771 372.952781 239.264983 
Q 367.257205 235.718551 361.561629 232.17212 
L 364.97105 230.080267 
Q 338.817988 187.454532 312.664927 144.828797 
L 316.074347 142.736944 
z
" style="stroke: #000000; stroke-linecap: round"/>
   </g>
   <g id="text_19">
    <!-- Target SNR: 19.5 dB -->
    <g transform="translate(208.875938 121.212875) scale(0.12 -0.12)">
     <defs>
      <path id="TimesNewRomanPSMT-54" d="M 3703 4238 
L 3750 3244 
L 3631 3244 
Q 3597 3506 3538 3619 
Q 3441 3800 3280 3886 
Q 3119 3972 2856 3972 
L 2259 3972 
L 2259 734 
Q 2259 344 2344 247 
Q 2463 116 2709 116 
L 2856 116 
L 2856 0 
L 1059 0 
L 1059 116 
L 1209 116 
Q 1478 116 1591 278 
Q 1659 378 1659 734 
L 1659 3972 
L 1150 3972 
Q 853 3972 728 3928 
Q 566 3869 450 3700 
Q 334 3531 313 3244 
L 194 3244 
L 244 4238 
L 3703 4238 
z
" transform="scale(0.015625)"/>
      <path id="TimesNewRomanPSMT-67" d="M 966 1044 
Q 703 1172 562 1401 
Q 422 1631 422 1909 
Q 422 2334 742 2640 
Q 1063 2947 1563 2947 
Q 1972 2947 2272 2747 
L 2878 2747 
Q 3013 2747 3034 2739 
Q 3056 2731 3066 2713 
Q 3084 2684 3084 2613 
Q 3084 2531 3069 2500 
Q 3059 2484 3036 2475 
Q 3013 2466 2878 2466 
L 2506 2466 
Q 2681 2241 2681 1891 
Q 2681 1491 2375 1206 
Q 2069 922 1553 922 
Q 1341 922 1119 984 
Q 981 866 932 777 
Q 884 688 884 625 
Q 884 572 936 522 
Q 988 472 1138 450 
Q 1225 438 1575 428 
Q 2219 413 2409 384 
Q 2700 344 2873 169 
Q 3047 -6 3047 -263 
Q 3047 -616 2716 -925 
Q 2228 -1381 1444 -1381 
Q 841 -1381 425 -1109 
Q 191 -953 191 -784 
Q 191 -709 225 -634 
Q 278 -519 444 -313 
Q 466 -284 763 25 
Q 600 122 533 198 
Q 466 275 466 372 
Q 466 481 555 628 
Q 644 775 966 1044 
z
M 1509 2797 
Q 1278 2797 1122 2612 
Q 966 2428 966 2047 
Q 966 1553 1178 1281 
Q 1341 1075 1591 1075 
Q 1828 1075 1981 1253 
Q 2134 1431 2134 1813 
Q 2134 2309 1919 2591 
Q 1759 2797 1509 2797 
z
M 934 0 
Q 788 -159 713 -296 
Q 638 -434 638 -550 
Q 638 -700 819 -813 
Q 1131 -1006 1722 -1006 
Q 2284 -1006 2551 -807 
Q 2819 -609 2819 -384 
Q 2819 -222 2659 -153 
Q 2497 -84 2016 -72 
Q 1313 -53 934 0 
z
" transform="scale(0.015625)"/>
      <path id="TimesNewRomanPSMT-3a" d="M 903 2950 
Q 1047 2950 1148 2848 
Q 1250 2747 1250 2603 
Q 1250 2459 1148 2357 
Q 1047 2256 903 2256 
Q 759 2256 657 2357 
Q 556 2459 556 2603 
Q 556 2747 657 2848 
Q 759 2950 903 2950 
z
M 897 609 
Q 1044 609 1145 506 
Q 1247 403 1247 259 
Q 1247 116 1144 14 
Q 1041 -88 897 -88 
Q 753 -88 651 14 
Q 550 116 550 259 
Q 550 403 651 506 
Q 753 609 897 609 
z
" transform="scale(0.015625)"/>
      <path id="TimesNewRomanPSMT-39" d="M 338 -88 
L 338 28 
Q 744 34 1094 217 
Q 1444 400 1770 856 
Q 2097 1313 2225 1859 
Q 1734 1544 1338 1544 
Q 891 1544 572 1889 
Q 253 2234 253 2806 
Q 253 3363 572 3797 
Q 956 4325 1575 4325 
Q 2097 4325 2469 3894 
Q 2925 3359 2925 2575 
Q 2925 1869 2578 1258 
Q 2231 647 1613 244 
Q 1109 -88 516 -88 
L 338 -88 
z
M 2275 2091 
Q 2331 2497 2331 2741 
Q 2331 3044 2228 3395 
Q 2125 3747 1936 3934 
Q 1747 4122 1506 4122 
Q 1228 4122 1018 3872 
Q 809 3622 809 3128 
Q 809 2469 1088 2097 
Q 1291 1828 1588 1828 
Q 1731 1828 1928 1897 
Q 2125 1966 2275 2091 
z
" transform="scale(0.015625)"/>
     </defs>
     <use xlink:href="#TimesNewRomanPSMT-54"/>
     <use xlink:href="#TimesNewRomanPSMT-61" transform="translate(54.083984 0)"/>
     <use xlink:href="#TimesNewRomanPSMT-72" transform="translate(98.46875 0)"/>
     <use xlink:href="#TimesNewRomanPSMT-67" transform="translate(130.019531 0)"/>
     <use xlink:href="#TimesNewRomanPSMT-65" transform="translate(180.019531 0)"/>
     <use xlink:href="#TimesNewRomanPSMT-74" transform="translate(224.404297 0)"/>
     <use xlink:href="#TimesNewRomanPSMT-20" transform="translate(252.1875 0)"/>
     <use xlink:href="#TimesNewRomanPSMT-53" transform="translate(277.1875 0)"/>
     <use xlink:href="#TimesNewRomanPSMT-4e" transform="translate(332.802734 0)"/>
     <use xlink:href="#TimesNewRomanPSMT-52" transform="translate(405.019531 0)"/>
     <use xlink:href="#TimesNewRomanPSMT-3a" transform="translate(471.71875 0)"/>
     <use xlink:href="#TimesNewRomanPSMT-20" transform="translate(499.501953 0)"/>
     <use xlink:href="#TimesNewRomanPSMT-31" transform="translate(524.501953 0)"/>
     <use xlink:href="#TimesNewRomanPSMT-39" transform="translate(574.501953 0)"/>
     <use xlink:href="#TimesNewRomanPSMT-2e" transform="translate(624.501953 0)"/>
     <use xlink:href="#TimesNewRomanPSMT-35" transform="translate(649.501953 0)"/>
     <use xlink:href="#TimesNewRomanPSMT-20" transform="translate(699.501953 0)"/>
     <use xlink:href="#TimesNewRomanPSMT-64" transform="translate(724.501953 0)"/>
     <use xlink:href="#TimesNewRomanPSMT-42" transform="translate(774.501953 0)"/>
    </g>
    <!-- Pre-FEC BER: 1e-4 -->
    <g transform="translate(208.875938 133.80125) scale(0.12 -0.12)">
     <defs>
      <path id="TimesNewRomanPSMT-50" d="M 1313 1984 
L 1313 750 
Q 1313 350 1400 253 
Q 1519 116 1759 116 
L 1922 116 
L 1922 0 
L 106 0 
L 106 116 
L 266 116 
Q 534 116 650 291 
Q 713 388 713 750 
L 713 3488 
Q 713 3888 628 3984 
Q 506 4122 266 4122 
L 106 4122 
L 106 4238 
L 1659 4238 
Q 2228 4238 2556 4120 
Q 2884 4003 3109 3725 
Q 3334 3447 3334 3066 
Q 3334 2547 2992 2222 
Q 2650 1897 2025 1897 
Q 1872 1897 1694 1919 
Q 1516 1941 1313 1984 
z
M 1313 2163 
Q 1478 2131 1606 2115 
Q 1734 2100 1825 2100 
Q 2150 2100 2386 2351 
Q 2622 2603 2622 3003 
Q 2622 3278 2509 3514 
Q 2397 3750 2190 3867 
Q 1984 3984 1722 3984 
Q 1563 3984 1313 3925 
L 1313 2163 
z
" transform="scale(0.015625)"/>
      <path id="TimesNewRomanPSMT-2d" d="M 259 1672 
L 1875 1672 
L 1875 1200 
L 259 1200 
L 259 1672 
z
" transform="scale(0.015625)"/>
      <path id="TimesNewRomanPSMT-46" d="M 1309 4006 
L 1309 2341 
L 2081 2341 
Q 2347 2341 2470 2458 
Q 2594 2575 2634 2922 
L 2750 2922 
L 2750 1488 
L 2634 1488 
Q 2631 1734 2570 1850 
Q 2509 1966 2401 2023 
Q 2294 2081 2081 2081 
L 1309 2081 
L 1309 750 
Q 1309 428 1350 325 
Q 1381 247 1481 191 
Q 1619 116 1769 116 
L 1922 116 
L 1922 0 
L 103 0 
L 103 116 
L 253 116 
Q 516 116 634 269 
Q 709 369 709 750 
L 709 3488 
Q 709 3809 669 3913 
Q 638 3991 541 4047 
Q 406 4122 253 4122 
L 103 4122 
L 103 4238 
L 3256 4238 
L 3297 3306 
L 3188 3306 
Q 3106 3603 2998 3742 
Q 2891 3881 2733 3943 
Q 2575 4006 2244 4006 
L 1309 4006 
z
" transform="scale(0.015625)"/>
      <path id="TimesNewRomanPSMT-43" d="M 3853 4334 
L 3950 2894 
L 3853 2894 
Q 3659 3541 3300 3825 
Q 2941 4109 2438 4109 
Q 2016 4109 1675 3895 
Q 1334 3681 1139 3212 
Q 944 2744 944 2047 
Q 944 1472 1128 1050 
Q 1313 628 1683 403 
Q 2053 178 2528 178 
Q 2941 178 3256 354 
Q 3572 531 3950 1056 
L 4047 994 
Q 3728 428 3303 165 
Q 2878 -97 2294 -97 
Q 1241 -97 663 684 
Q 231 1266 231 2053 
Q 231 2688 515 3219 
Q 800 3750 1298 4042 
Q 1797 4334 2388 4334 
Q 2847 4334 3294 4109 
Q 3425 4041 3481 4041 
Q 3566 4041 3628 4100 
Q 3709 4184 3744 4334 
L 3853 4334 
z
" transform="scale(0.015625)"/>
     </defs>
     <use xlink:href="#TimesNewRomanPSMT-50"/>
     <use xlink:href="#TimesNewRomanPSMT-72" transform="translate(55.615234 0)"/>
     <use xlink:href="#TimesNewRomanPSMT-65" transform="translate(88.916016 0)"/>
     <use xlink:href="#TimesNewRomanPSMT-2d" transform="translate(133.300781 0)"/>
     <use xlink:href="#TimesNewRomanPSMT-46" transform="translate(166.601562 0)"/>
     <use xlink:href="#TimesNewRomanPSMT-45" transform="translate(222.216797 0)"/>
     <use xlink:href="#TimesNewRomanPSMT-43" transform="translate(283.300781 0)"/>
     <use xlink:href="#TimesNewRomanPSMT-20" transform="translate(350 0)"/>
     <use xlink:href="#TimesNewRomanPSMT-42" transform="translate(375 0)"/>
     <use xlink:href="#TimesNewRomanPSMT-45" transform="translate(441.699219 0)"/>
     <use xlink:href="#TimesNewRomanPSMT-52" transform="translate(502.783203 0)"/>
     <use xlink:href="#TimesNewRomanPSMT-3a" transform="translate(569.482422 0)"/>
     <use xlink:href="#TimesNewRomanPSMT-20" transform="translate(597.265625 0)"/>
     <use xlink:href="#TimesNewRomanPSMT-31" transform="translate(622.265625 0)"/>
     <use xlink:href="#TimesNewRomanPSMT-65" transform="translate(672.265625 0)"/>
     <use xlink:href="#TimesNewRomanPSMT-2d" transform="translate(716.650391 0)"/>
     <use xlink:href="#TimesNewRomanPSMT-34" transform="translate(749.951172 0)"/>
    </g>
   </g>
   <g id="text_20">
    <!-- Fig 4. BER vs. SNR (Waterfall Plot, 20% SD-FEC Threshold at 2.4e-2) -->
    <g transform="translate(75.287031 16.92125) scale(0.14 -0.14)">
     <defs>
      <path id="TimesNewRomanPSMT-76" d="M 53 2863 
L 1400 2863 
L 1400 2747 
L 1313 2747 
Q 1191 2747 1127 2687 
Q 1063 2628 1063 2528 
Q 1063 2419 1128 2269 
L 1794 688 
L 2463 2328 
Q 2534 2503 2534 2594 
Q 2534 2638 2509 2666 
Q 2475 2713 2422 2730 
Q 2369 2747 2206 2747 
L 2206 2863 
L 3141 2863 
L 3141 2747 
Q 2978 2734 2916 2681 
Q 2806 2588 2719 2369 
L 1703 -88 
L 1575 -88 
L 553 2328 
Q 484 2497 421 2570 
Q 359 2644 263 2694 
Q 209 2722 53 2747 
L 53 2863 
z
" transform="scale(0.015625)"/>
      <path id="TimesNewRomanPSMT-73" d="M 2050 2947 
L 2050 1972 
L 1947 1972 
Q 1828 2431 1642 2597 
Q 1456 2763 1169 2763 
Q 950 2763 815 2647 
Q 681 2531 681 2391 
Q 681 2216 781 2091 
Q 878 1963 1175 1819 
L 1631 1597 
Q 2266 1288 2266 781 
Q 2266 391 1970 151 
Q 1675 -88 1309 -88 
Q 1047 -88 709 6 
Q 606 38 541 38 
Q 469 38 428 -44 
L 325 -44 
L 325 978 
L 428 978 
Q 516 541 762 319 
Q 1009 97 1316 97 
Q 1531 97 1667 223 
Q 1803 350 1803 528 
Q 1803 744 1651 891 
Q 1500 1038 1047 1263 
Q 594 1488 453 1669 
Q 313 1847 313 2119 
Q 313 2472 555 2709 
Q 797 2947 1181 2947 
Q 1350 2947 1591 2875 
Q 1750 2828 1803 2828 
Q 1853 2828 1881 2850 
Q 1909 2872 1947 2947 
L 2050 2947 
z
" transform="scale(0.015625)"/>
      <path id="TimesNewRomanPSMT-57" d="M 5991 4238 
L 5991 4122 
Q 5825 4122 5722 4062 
Q 5619 4003 5525 3841 
Q 5463 3731 5328 3319 
L 4147 -97 
L 4022 -97 
L 3056 2613 
L 2097 -97 
L 1984 -97 
L 725 3422 
Q 584 3816 547 3888 
Q 484 4006 376 4064 
Q 269 4122 84 4122 
L 84 4238 
L 1653 4238 
L 1653 4122 
L 1578 4122 
Q 1413 4122 1325 4047 
Q 1238 3972 1238 3866 
Q 1238 3756 1375 3363 
L 2209 984 
L 2913 3006 
L 2788 3363 
L 2688 3647 
Q 2622 3803 2541 3922 
Q 2500 3981 2441 4022 
Q 2363 4078 2284 4103 
Q 2225 4122 2097 4122 
L 2097 4238 
L 3747 4238 
L 3747 4122 
L 3634 4122 
Q 3459 4122 3378 4047 
Q 3297 3972 3297 3844 
Q 3297 3684 3438 3288 
L 4250 984 
L 5056 3319 
Q 5194 3706 5194 3856 
Q 5194 3928 5148 3990 
Q 5103 4053 5034 4078 
Q 4916 4122 4725 4122 
L 4725 4238 
L 5991 4238 
z
" transform="scale(0.015625)"/>
      <path id="TimesNewRomanPSMT-66" d="M 1319 2638 
L 1319 756 
Q 1319 356 1406 250 
Q 1522 113 1716 113 
L 1975 113 
L 1975 0 
L 266 0 
L 266 113 
L 394 113 
Q 519 113 622 175 
Q 725 238 764 344 
Q 803 450 803 756 
L 803 2638 
L 247 2638 
L 247 2863 
L 803 2863 
L 803 3050 
Q 803 3478 940 3775 
Q 1078 4072 1361 4255 
Q 1644 4438 1997 4438 
Q 2325 4438 2600 4225 
Q 2781 4084 2781 3909 
Q 2781 3816 2700 3733 
Q 2619 3650 2525 3650 
Q 2453 3650 2373 3701 
Q 2294 3753 2178 3923 
Q 2063 4094 1966 4153 
Q 1869 4213 1750 4213 
Q 1606 4213 1506 4136 
Q 1406 4059 1362 3898 
Q 1319 3738 1319 3069 
L 1319 2863 
L 2056 2863 
L 2056 2638 
L 1319 2638 
z
" transform="scale(0.015625)"/>
      <path id="TimesNewRomanPSMT-2c" d="M 344 -1066 
L 344 -928 
Q 666 -822 842 -598 
Q 1019 -375 1019 -125 
Q 1019 -66 991 -25 
Q 969 3 947 3 
Q 913 3 797 -59 
Q 741 -88 678 -88 
Q 525 -88 434 3 
Q 344 94 344 253 
Q 344 406 461 515 
Q 578 625 747 625 
Q 953 625 1114 445 
Q 1275 266 1275 -31 
Q 1275 -353 1051 -629 
Q 828 -906 344 -1066 
z
" transform="scale(0.015625)"/>
      <path id="TimesNewRomanPSMT-25" d="M 4350 4334 
L 1263 -175 
L 984 -175 
L 4072 4334 
L 4350 4334 
z
M 1138 4334 
Q 1559 4334 1792 3984 
Q 2025 3634 2025 3181 
Q 2025 2638 1762 2341 
Q 1500 2044 1131 2044 
Q 884 2044 678 2180 
Q 472 2316 348 2584 
Q 225 2853 225 3181 
Q 225 3509 350 3786 
Q 475 4063 692 4198 
Q 909 4334 1138 4334 
z
M 1128 4159 
Q 969 4159 845 3971 
Q 722 3784 722 3184 
Q 722 2750 791 2522 
Q 844 2350 956 2256 
Q 1022 2200 1119 2200 
Q 1269 2200 1375 2363 
Q 1531 2603 1531 3166 
Q 1531 3759 1378 4000 
Q 1278 4159 1128 4159 
z
M 4206 2103 
Q 4428 2103 4648 1962 
Q 4869 1822 4989 1553 
Q 5109 1284 5109 963 
Q 5109 409 4843 117 
Q 4578 -175 4216 -175 
Q 3988 -175 3773 -34 
Q 3559 106 3436 367 
Q 3313 628 3313 963 
Q 3313 1291 3436 1562 
Q 3559 1834 3773 1968 
Q 3988 2103 4206 2103 
z
M 4209 1938 
Q 4059 1938 3950 1769 
Q 3809 1550 3809 941 
Q 3809 381 3953 159 
Q 4059 0 4209 0 
Q 4353 0 4466 172 
Q 4616 400 4616 956 
Q 4616 1544 4466 1778 
Q 4363 1938 4209 1938 
z
" transform="scale(0.015625)"/>
      <path id="TimesNewRomanPSMT-44" d="M 109 0 
L 109 116 
L 269 116 
Q 538 116 650 288 
Q 719 391 719 750 
L 719 3488 
Q 719 3884 631 3984 
Q 509 4122 269 4122 
L 109 4122 
L 109 4238 
L 1834 4238 
Q 2784 4238 3279 4022 
Q 3775 3806 4076 3303 
Q 4378 2800 4378 2141 
Q 4378 1256 3841 663 
Q 3238 0 2003 0 
L 109 0 
z
M 1319 306 
Q 1716 219 1984 219 
Q 2709 219 3187 728 
Q 3666 1238 3666 2109 
Q 3666 2988 3187 3494 
Q 2709 4000 1959 4000 
Q 1678 4000 1319 3909 
L 1319 306 
z
" transform="scale(0.015625)"/>
      <path id="TimesNewRomanPSMT-68" d="M 1041 4444 
L 1041 2350 
Q 1388 2731 1591 2839 
Q 1794 2947 1997 2947 
Q 2241 2947 2416 2812 
Q 2591 2678 2675 2391 
Q 2734 2191 2734 1659 
L 2734 647 
Q 2734 375 2778 275 
Q 2809 200 2884 156 
Q 2959 113 3159 113 
L 3159 0 
L 1753 0 
L 1753 113 
L 1819 113 
Q 2019 113 2097 173 
Q 2175 234 2206 353 
Q 2216 403 2216 647 
L 2216 1659 
Q 2216 2128 2167 2275 
Q 2119 2422 2012 2495 
Q 1906 2569 1756 2569 
Q 1603 2569 1437 2487 
Q 1272 2406 1041 2159 
L 1041 647 
Q 1041 353 1073 281 
Q 1106 209 1195 161 
Q 1284 113 1503 113 
L 1503 0 
L 84 0 
L 84 113 
Q 275 113 384 172 
Q 447 203 484 290 
Q 522 378 522 647 
L 522 3238 
Q 522 3728 498 3840 
Q 475 3953 426 3993 
Q 378 4034 297 4034 
Q 231 4034 84 3984 
L 41 4094 
L 897 4444 
L 1041 4444 
z
" transform="scale(0.015625)"/>
     </defs>
     <use xlink:href="#TimesNewRomanPSMT-46"/>
     <use xlink:href="#TimesNewRomanPSMT-69" transform="translate(55.615234 0)"/>
     <use xlink:href="#TimesNewRomanPSMT-67" transform="translate(83.398438 0)"/>
     <use xlink:href="#TimesNewRomanPSMT-20" transform="translate(133.398438 0)"/>
     <use xlink:href="#TimesNewRomanPSMT-34" transform="translate(158.398438 0)"/>
     <use xlink:href="#TimesNewRomanPSMT-2e" transform="translate(208.398438 0)"/>
     <use xlink:href="#TimesNewRomanPSMT-20" transform="translate(233.398438 0)"/>
     <use xlink:href="#TimesNewRomanPSMT-42" transform="translate(258.398438 0)"/>
     <use xlink:href="#TimesNewRomanPSMT-45" transform="translate(325.097656 0)"/>
     <use xlink:href="#TimesNewRomanPSMT-52" transform="translate(386.181641 0)"/>
     <use xlink:href="#TimesNewRomanPSMT-20" transform="translate(452.880859 0)"/>
     <use xlink:href="#TimesNewRomanPSMT-76" transform="translate(477.880859 0)"/>
     <use xlink:href="#TimesNewRomanPSMT-73" transform="translate(527.880859 0)"/>
     <use xlink:href="#TimesNewRomanPSMT-2e" transform="translate(566.796875 0)"/>
     <use xlink:href="#TimesNewRomanPSMT-20" transform="translate(591.796875 0)"/>
     <use xlink:href="#TimesNewRomanPSMT-53" transform="translate(616.796875 0)"/>
     <use xlink:href="#TimesNewRomanPSMT-4e" transform="translate(672.412109 0)"/>
     <use xlink:href="#TimesNewRomanPSMT-52" transform="translate(744.628906 0)"/>
     <use xlink:href="#TimesNewRomanPSMT-20" transform="translate(811.328125 0)"/>
     <use xlink:href="#TimesNewRomanPSMT-28" transform="translate(836.328125 0)"/>
     <use xlink:href="#TimesNewRomanPSMT-57" transform="translate(869.628906 0)"/>
     <use xlink:href="#TimesNewRomanPSMT-61" transform="translate(956.013672 0)"/>
     <use xlink:href="#TimesNewRomanPSMT-74" transform="translate(1000.398438 0)"/>
     <use xlink:href="#TimesNewRomanPSMT-65" transform="translate(1028.181641 0)"/>
     <use xlink:href="#TimesNewRomanPSMT-72" transform="translate(1072.566406 0)"/>
     <use xlink:href="#TimesNewRomanPSMT-66" transform="translate(1105.867188 0)"/>
     <use xlink:href="#TimesNewRomanPSMT-61" transform="translate(1139.167969 0)"/>
     <use xlink:href="#TimesNewRomanPSMT-6c" transform="translate(1183.552734 0)"/>
     <use xlink:href="#TimesNewRomanPSMT-6c" transform="translate(1211.335938 0)"/>
     <use xlink:href="#TimesNewRomanPSMT-20" transform="translate(1239.119141 0)"/>
     <use xlink:href="#TimesNewRomanPSMT-50" transform="translate(1264.119141 0)"/>
     <use xlink:href="#TimesNewRomanPSMT-6c" transform="translate(1319.734375 0)"/>
     <use xlink:href="#TimesNewRomanPSMT-6f" transform="translate(1347.517578 0)"/>
     <use xlink:href="#TimesNewRomanPSMT-74" transform="translate(1397.517578 0)"/>
     <use xlink:href="#TimesNewRomanPSMT-2c" transform="translate(1425.300781 0)"/>
     <use xlink:href="#TimesNewRomanPSMT-20" transform="translate(1450.300781 0)"/>
     <use xlink:href="#TimesNewRomanPSMT-32" transform="translate(1475.300781 0)"/>
     <use xlink:href="#TimesNewRomanPSMT-30" transform="translate(1525.300781 0)"/>
     <use xlink:href="#TimesNewRomanPSMT-25" transform="translate(1575.300781 0)"/>
     <use xlink:href="#TimesNewRomanPSMT-20" transform="translate(1658.601562 0)"/>
     <use xlink:href="#TimesNewRomanPSMT-53" transform="translate(1683.601562 0)"/>
     <use xlink:href="#TimesNewRomanPSMT-44" transform="translate(1739.216797 0)"/>
     <use xlink:href="#TimesNewRomanPSMT-2d" transform="translate(1811.433594 0)"/>
     <use xlink:href="#TimesNewRomanPSMT-46" transform="translate(1844.734375 0)"/>
     <use xlink:href="#TimesNewRomanPSMT-45" transform="translate(1900.349609 0)"/>
     <use xlink:href="#TimesNewRomanPSMT-43" transform="translate(1961.433594 0)"/>
     <use xlink:href="#TimesNewRomanPSMT-20" transform="translate(2028.132812 0)"/>
     <use xlink:href="#TimesNewRomanPSMT-54" transform="translate(2051.382812 0)"/>
     <use xlink:href="#TimesNewRomanPSMT-68" transform="translate(2112.466797 0)"/>
     <use xlink:href="#TimesNewRomanPSMT-72" transform="translate(2162.466797 0)"/>
     <use xlink:href="#TimesNewRomanPSMT-65" transform="translate(2195.767578 0)"/>
     <use xlink:href="#TimesNewRomanPSMT-73" transform="translate(2240.152344 0)"/>
     <use xlink:href="#TimesNewRomanPSMT-68" transform="translate(2279.068359 0)"/>
     <use xlink:href="#TimesNewRomanPSMT-6f" transform="translate(2329.068359 0)"/>
     <use xlink:href="#TimesNewRomanPSMT-6c" transform="translate(2379.068359 0)"/>
     <use xlink:href="#TimesNewRomanPSMT-64" transform="translate(2406.851562 0)"/>
     <use xlink:href="#TimesNewRomanPSMT-20" transform="translate(2456.851562 0)"/>
     <use xlink:href="#TimesNewRomanPSMT-61" transform="translate(2481.851562 0)"/>
     <use xlink:href="#TimesNewRomanPSMT-74" transform="translate(2526.236328 0)"/>
     <use xlink:href="#TimesNewRomanPSMT-20" transform="translate(2554.019531 0)"/>
     <use xlink:href="#TimesNewRomanPSMT-32" transform="translate(2579.019531 0)"/>
     <use xlink:href="#TimesNewRomanPSMT-2e" transform="translate(2629.019531 0)"/>
     <use xlink:href="#TimesNewRomanPSMT-34" transform="translate(2654.019531 0)"/>
     <use xlink:href="#TimesNewRomanPSMT-65" transform="translate(2704.019531 0)"/>
     <use xlink:href="#TimesNewRomanPSMT-2d" transform="translate(2748.404297 0)"/>
     <use xlink:href="#TimesNewRomanPSMT-32" transform="translate(2781.705078 0)"/>
     <use xlink:href="#TimesNewRomanPSMT-29" transform="translate(2831.705078 0)"/>
    </g>
   </g>
   <g id="PathCollection_1">
    <defs>
     <path id="m83c26b5f15" d="M 0 5 
C 1.326016 5 2.597899 4.473168 3.535534 3.535534 
C 4.473168 2.597899 5 1.326016 5 0 
C 5 -1.326016 4.473168 -2.597899 3.535534 -3.535534 
C 2.597899 -4.473168 1.326016 -5 0 -5 
C -1.326016 -5 -2.597899 -4.473168 -3.535534 -3.535534 
C -4.473168 -2.597899 -5 -1.326016 -5 0 
C -5 1.326016 -4.473168 2.597899 -3.535534 3.535534 
C -2.597899 4.473168 -1.326016 5 0 5 
z
" style="stroke: #009e73"/>
    </defs>
    <g clip-path="url(#p2fad32db10)">
     <use xlink:href="#m83c26b5f15" x="376.275938" y="244.68125" style="fill: #009e73; stroke: #009e73"/>
    </g>
   </g>
   <g id="legend_1">
    <g id="patch_8">
     <path d="M 60.335938 350.06125 
L 241.375313 350.06125 
Q 243.575313 350.06125 243.575313 347.86125 
L 243.575313 286.72875 
Q 243.575313 284.52875 241.375313 284.52875 
L 60.335938 284.52875 
Q 58.135938 284.52875 58.135938 286.72875 
L 58.135938 347.86125 
Q 58.135938 350.06125 60.335938 350.06125 
z
" style="fill: #ffffff; opacity: 0.8; stroke: #cccccc; stroke-linejoin: miter"/>
    </g>
    <g id="line2d_132">
     <path d="M 62.535938 292.77875 
L 73.535938 292.77875 
L 84.535938 292.77875 
" style="fill: none; stroke: #0072b2; stroke-width: 2; stroke-linecap: square"/>
    </g>
    <g id="text_21">
     <!-- Pre-NN (Standard DSP) -->
     <g transform="translate(93.335938 296.62875) scale(0.11 -0.11)">
      <defs>
       <path id="TimesNewRomanPSMT-6e" d="M 1034 2341 
Q 1538 2947 1994 2947 
Q 2228 2947 2397 2830 
Q 2566 2713 2666 2444 
Q 2734 2256 2734 1869 
L 2734 647 
Q 2734 375 2778 278 
Q 2813 200 2889 156 
Q 2966 113 3172 113 
L 3172 0 
L 1756 0 
L 1756 113 
L 1816 113 
Q 2016 113 2095 173 
Q 2175 234 2206 353 
Q 2219 400 2219 647 
L 2219 1819 
Q 2219 2209 2117 2386 
Q 2016 2563 1775 2563 
Q 1403 2563 1034 2156 
L 1034 647 
Q 1034 356 1069 288 
Q 1113 197 1189 155 
Q 1266 113 1500 113 
L 1500 0 
L 84 0 
L 84 113 
L 147 113 
Q 366 113 442 223 
Q 519 334 519 647 
L 519 1709 
Q 519 2225 495 2337 
Q 472 2450 423 2490 
Q 375 2531 294 2531 
Q 206 2531 84 2484 
L 38 2597 
L 900 2947 
L 1034 2947 
L 1034 2341 
z
" transform="scale(0.015625)"/>
      </defs>
      <use xlink:href="#TimesNewRomanPSMT-50"/>
      <use xlink:href="#TimesNewRomanPSMT-72" transform="translate(55.615234 0)"/>
      <use xlink:href="#TimesNewRomanPSMT-65" transform="translate(88.916016 0)"/>
      <use xlink:href="#TimesNewRomanPSMT-2d" transform="translate(133.300781 0)"/>
      <use xlink:href="#TimesNewRomanPSMT-4e" transform="translate(166.601562 0)"/>
      <use xlink:href="#TimesNewRomanPSMT-4e" transform="translate(238.818359 0)"/>
      <use xlink:href="#TimesNewRomanPSMT-20" transform="translate(311.035156 0)"/>
      <use xlink:href="#TimesNewRomanPSMT-28" transform="translate(336.035156 0)"/>
      <use xlink:href="#TimesNewRomanPSMT-53" transform="translate(369.335938 0)"/>
      <use xlink:href="#TimesNewRomanPSMT-74" transform="translate(424.951172 0)"/>
      <use xlink:href="#TimesNewRomanPSMT-61" transform="translate(452.734375 0)"/>
      <use xlink:href="#TimesNewRomanPSMT-6e" transform="translate(497.119141 0)"/>
      <use xlink:href="#TimesNewRomanPSMT-64" transform="translate(547.119141 0)"/>
      <use xlink:href="#TimesNewRomanPSMT-61" transform="translate(597.119141 0)"/>
      <use xlink:href="#TimesNewRomanPSMT-72" transform="translate(641.503906 0)"/>
      <use xlink:href="#TimesNewRomanPSMT-64" transform="translate(674.804688 0)"/>
      <use xlink:href="#TimesNewRomanPSMT-20" transform="translate(724.804688 0)"/>
      <use xlink:href="#TimesNewRomanPSMT-44" transform="translate(749.804688 0)"/>
      <use xlink:href="#TimesNewRomanPSMT-53" transform="translate(822.021484 0)"/>
      <use xlink:href="#TimesNewRomanPSMT-50" transform="translate(877.636719 0)"/>
      <use xlink:href="#TimesNewRomanPSMT-29" transform="translate(933.251953 0)"/>
     </g>
    </g>
    <g id="line2d_133">
     <path d="M 62.535938 308.331719 
L 73.535938 308.331719 
L 84.535938 308.331719 
" style="fill: none; stroke: #d55e00; stroke-width: 2; stroke-linecap: square"/>
    </g>
    <g id="text_22">
     <!-- Post-NN (Neural EQ) -->
     <g transform="translate(93.335938 312.181719) scale(0.11 -0.11)">
      <defs>
       <path id="TimesNewRomanPSMT-75" d="M 2709 2863 
L 2709 1128 
Q 2709 631 2732 520 
Q 2756 409 2807 365 
Q 2859 322 2928 322 
Q 3025 322 3147 375 
L 3191 266 
L 2334 -88 
L 2194 -88 
L 2194 519 
Q 1825 119 1631 15 
Q 1438 -88 1222 -88 
Q 981 -88 804 51 
Q 628 191 559 409 
Q 491 628 491 1028 
L 491 2306 
Q 491 2509 447 2587 
Q 403 2666 317 2708 
Q 231 2750 6 2747 
L 6 2863 
L 1009 2863 
L 1009 947 
Q 1009 547 1148 422 
Q 1288 297 1484 297 
Q 1619 297 1789 381 
Q 1959 466 2194 703 
L 2194 2325 
Q 2194 2569 2105 2655 
Q 2016 2741 1734 2747 
L 1734 2863 
L 2709 2863 
z
" transform="scale(0.015625)"/>
       <path id="TimesNewRomanPSMT-51" d="M 2819 -47 
Q 3138 -597 3508 -856 
Q 3878 -1116 4350 -1153 
L 4350 -1253 
Q 3919 -1238 3428 -1080 
Q 2938 -922 2498 -642 
Q 2059 -363 1741 -47 
Q 1291 134 1028 338 
Q 647 641 436 1083 
Q 225 1525 225 2128 
Q 225 3078 840 3706 
Q 1456 4334 2331 4334 
Q 3163 4334 3770 3704 
Q 4378 3075 4378 2116 
Q 4378 1338 3945 750 
Q 3513 163 2819 -47 
z
M 2294 4094 
Q 1725 4094 1378 3688 
Q 941 3178 941 2128 
Q 941 1100 1384 544 
Q 1728 116 2294 116 
Q 2881 116 3241 544 
Q 3663 1050 3663 2038 
Q 3663 2797 3431 3316 
Q 3253 3716 2958 3905 
Q 2663 4094 2294 4094 
z
" transform="scale(0.015625)"/>
      </defs>
      <use xlink:href="#TimesNewRomanPSMT-50"/>
      <use xlink:href="#TimesNewRomanPSMT-6f" transform="translate(55.615234 0)"/>
      <use xlink:href="#TimesNewRomanPSMT-73" transform="translate(105.615234 0)"/>
      <use xlink:href="#TimesNewRomanPSMT-74" transform="translate(144.53125 0)"/>
      <use xlink:href="#TimesNewRomanPSMT-2d" transform="translate(172.314453 0)"/>
      <use xlink:href="#TimesNewRomanPSMT-4e" transform="translate(205.615234 0)"/>
      <use xlink:href="#TimesNewRomanPSMT-4e" transform="translate(277.832031 0)"/>
      <use xlink:href="#TimesNewRomanPSMT-20" transform="translate(350.048828 0)"/>
      <use xlink:href="#TimesNewRomanPSMT-28" transform="translate(375.048828 0)"/>
      <use xlink:href="#TimesNewRomanPSMT-4e" transform="translate(408.349609 0)"/>
      <use xlink:href="#TimesNewRomanPSMT-65" transform="translate(480.566406 0)"/>
      <use xlink:href="#TimesNewRomanPSMT-75" transform="translate(524.951172 0)"/>
      <use xlink:href="#TimesNewRomanPSMT-72" transform="translate(574.951172 0)"/>
      <use xlink:href="#TimesNewRomanPSMT-61" transform="translate(608.251953 0)"/>
      <use xlink:href="#TimesNewRomanPSMT-6c" transform="translate(652.636719 0)"/>
      <use xlink:href="#TimesNewRomanPSMT-20" transform="translate(680.419922 0)"/>
      <use xlink:href="#TimesNewRomanPSMT-45" transform="translate(705.419922 0)"/>
      <use xlink:href="#TimesNewRomanPSMT-51" transform="translate(766.503906 0)"/>
      <use xlink:href="#TimesNewRomanPSMT-29" transform="translate(838.720703 0)"/>
     </g>
    </g>
    <g id="line2d_134">
     <path d="M 62.535938 323.884687 
L 73.535938 323.884687 
L 84.535938 323.884687 
" style="fill: none; stroke-dasharray: 1.5,2.475; stroke-dashoffset: 0; stroke: #000000; stroke-width: 1.5"/>
    </g>
    <g id="text_23">
     <!-- 20% SD-FEC Threshold (2.4e-2) -->
     <g transform="translate(93.335938 327.734687) scale(0.11 -0.11)">
      <use xlink:href="#TimesNewRomanPSMT-32"/>
      <use xlink:href="#TimesNewRomanPSMT-30" transform="translate(50 0)"/>
      <use xlink:href="#TimesNewRomanPSMT-25" transform="translate(100 0)"/>
      <use xlink:href="#TimesNewRomanPSMT-20" transform="translate(183.300781 0)"/>
      <use xlink:href="#TimesNewRomanPSMT-53" transform="translate(208.300781 0)"/>
      <use xlink:href="#TimesNewRomanPSMT-44" transform="translate(263.916016 0)"/>
      <use xlink:href="#TimesNewRomanPSMT-2d" transform="translate(336.132812 0)"/>
      <use xlink:href="#TimesNewRomanPSMT-46" transform="translate(369.433594 0)"/>
      <use xlink:href="#TimesNewRomanPSMT-45" transform="translate(425.048828 0)"/>
      <use xlink:href="#TimesNewRomanPSMT-43" transform="translate(486.132812 0)"/>
      <use xlink:href="#TimesNewRomanPSMT-20" transform="translate(552.832031 0)"/>
      <use xlink:href="#TimesNewRomanPSMT-54" transform="translate(576.082031 0)"/>
      <use xlink:href="#TimesNewRomanPSMT-68" transform="translate(637.166016 0)"/>
      <use xlink:href="#TimesNewRomanPSMT-72" transform="translate(687.166016 0)"/>
      <use xlink:href="#TimesNewRomanPSMT-65" transform="translate(720.466797 0)"/>
      <use xlink:href="#TimesNewRomanPSMT-73" transform="translate(764.851562 0)"/>
      <use xlink:href="#TimesNewRomanPSMT-68" transform="translate(803.767578 0)"/>
      <use xlink:href="#TimesNewRomanPSMT-6f" transform="translate(853.767578 0)"/>
      <use xlink:href="#TimesNewRomanPSMT-6c" transform="translate(903.767578 0)"/>
      <use xlink:href="#TimesNewRomanPSMT-64" transform="translate(931.550781 0)"/>
      <use xlink:href="#TimesNewRomanPSMT-20" transform="translate(981.550781 0)"/>
      <use xlink:href="#TimesNewRomanPSMT-28" transform="translate(1006.550781 0)"/>
      <use xlink:href="#TimesNewRomanPSMT-32" transform="translate(1039.851562 0)"/>
      <use xlink:href="#TimesNewRomanPSMT-2e" transform="translate(1089.851562 0)"/>
      <use xlink:href="#TimesNewRomanPSMT-34" transform="translate(1114.851562 0)"/>
      <use xlink:href="#TimesNewRomanPSMT-65" transform="translate(1164.851562 0)"/>
      <use xlink:href="#TimesNewRomanPSMT-2d" transform="translate(1209.236328 0)"/>
      <use xlink:href="#TimesNewRomanPSMT-32" transform="translate(1242.537109 0)"/>
      <use xlink:href="#TimesNewRomanPSMT-29" transform="translate(1292.537109 0)"/>
     </g>
    </g>
    <g id="PathCollection_2">
     <g>
      <use xlink:href="#m83c26b5f15" x="73.535938" y="340.400156" style="fill: #009e73; stroke: #009e73"/>
     </g>
    </g>
    <g id="text_24">
     <!-- Operating Point (19.5 dB) -->
     <g transform="translate(93.335938 343.287656) scale(0.11 -0.11)">
      <defs>
       <path id="TimesNewRomanPSMT-4f" d="M 2341 4334 
Q 3166 4334 3770 3707 
Q 4375 3081 4375 2144 
Q 4375 1178 3765 540 
Q 3156 -97 2291 -97 
Q 1416 -97 820 525 
Q 225 1147 225 2134 
Q 225 3144 913 3781 
Q 1509 4334 2341 4334 
z
M 2281 4106 
Q 1713 4106 1369 3684 
Q 941 3159 941 2147 
Q 941 1109 1384 550 
Q 1725 125 2284 125 
Q 2881 125 3270 590 
Q 3659 1056 3659 2059 
Q 3659 3147 3231 3681 
Q 2888 4106 2281 4106 
z
" transform="scale(0.015625)"/>
       <path id="TimesNewRomanPSMT-70" d="M -6 2578 
L 875 2934 
L 994 2934 
L 994 2266 
Q 1216 2644 1439 2795 
Q 1663 2947 1909 2947 
Q 2341 2947 2628 2609 
Q 2981 2197 2981 1534 
Q 2981 794 2556 309 
Q 2206 -88 1675 -88 
Q 1444 -88 1275 -22 
Q 1150 25 994 166 
L 994 -706 
Q 994 -1000 1030 -1079 
Q 1066 -1159 1155 -1206 
Q 1244 -1253 1478 -1253 
L 1478 -1369 
L -22 -1369 
L -22 -1253 
L 56 -1253 
Q 228 -1256 350 -1188 
Q 409 -1153 442 -1076 
Q 475 -1000 475 -688 
L 475 2019 
Q 475 2297 450 2372 
Q 425 2447 370 2484 
Q 316 2522 222 2522 
Q 147 2522 31 2478 
L -6 2578 
z
M 994 2081 
L 994 1013 
Q 994 666 1022 556 
Q 1066 375 1236 237 
Q 1406 100 1666 100 
Q 1978 100 2172 344 
Q 2425 663 2425 1241 
Q 2425 1897 2138 2250 
Q 1938 2494 1663 2494 
Q 1513 2494 1366 2419 
Q 1253 2363 994 2081 
z
" transform="scale(0.015625)"/>
      </defs>
      <use xlink:href="#TimesNewRomanPSMT-4f"/>
      <use xlink:href="#TimesNewRomanPSMT-70" transform="translate(72.216797 0)"/>
      <use xlink:href="#TimesNewRomanPSMT-65" transform="translate(122.216797 0)"/>
      <use xlink:href="#TimesNewRomanPSMT-72" transform="translate(166.601562 0)"/>
      <use xlink:href="#TimesNewRomanPSMT-61" transform="translate(199.902344 0)"/>
      <use xlink:href="#TimesNewRomanPSMT-74" transform="translate(244.287109 0)"/>
      <use xlink:href="#TimesNewRomanPSMT-69" transform="translate(272.070312 0)"/>
      <use xlink:href="#TimesNewRomanPSMT-6e" transform="translate(299.853516 0)"/>
      <use xlink:href="#TimesNewRomanPSMT-67" transform="translate(349.853516 0)"/>
      <use xlink:href="#TimesNewRomanPSMT-20" transform="translate(399.853516 0)"/>
      <use xlink:href="#TimesNewRomanPSMT-50" transform="translate(424.853516 0)"/>
      <use xlink:href="#TimesNewRomanPSMT-6f" transform="translate(480.46875 0)"/>
      <use xlink:href="#TimesNewRomanPSMT-69" transform="translate(530.46875 0)"/>
      <use xlink:href="#TimesNewRomanPSMT-6e" transform="translate(558.251953 0)"/>
      <use xlink:href="#TimesNewRomanPSMT-74" transform="translate(608.251953 0)"/>
      <use xlink:href="#TimesNewRomanPSMT-20" transform="translate(636.035156 0)"/>
      <use xlink:href="#TimesNewRomanPSMT-28" transform="translate(661.035156 0)"/>
      <use xlink:href="#TimesNewRomanPSMT-31" transform="translate(694.335938 0)"/>
      <use xlink:href="#TimesNewRomanPSMT-39" transform="translate(744.335938 0)"/>
      <use xlink:href="#TimesNewRomanPSMT-2e" transform="translate(794.335938 0)"/>
      <use xlink:href="#TimesNewRomanPSMT-35" transform="translate(819.335938 0)"/>
      <use xlink:href="#TimesNewRomanPSMT-20" transform="translate(869.335938 0)"/>
      <use xlink:href="#TimesNewRomanPSMT-64" transform="translate(894.335938 0)"/>
      <use xlink:href="#TimesNewRomanPSMT-42" transform="translate(944.335938 0)"/>
      <use xlink:href="#TimesNewRomanPSMT-29" transform="translate(1011.035156 0)"/>
     </g>
    </g>
   </g>
  </g>
 </g>
 <defs>
  <clipPath id="p2fad32db10">
   <rect x="52.635938" y="22.92125" width="446.4" height="332.64"/>
  </clipPath>
 </defs>
</svg>
